<svg width="60%" height="auto" viewBox="0 0 1042 680" fill="none" xmlns="http://www.w3.org/2000/svg" id="svg5723" preserveAspectRatio="xMidYMid" xmlns:svg="http://www.w3.org/2000/svg" xmlns:xlink="http://www.w3.org/1999/xlink" xmlns:sodipodi="http://sodipodi.sourceforge.net/DTD/sodipodi-0.dtd" xmlns:inkscape="http://www.inkscape.org/namespaces/inkscape" xmlns:anigen="http://www.anigen.org/namespace" anigen:version="0.8.1">
<sodipodi:namedview id="base" bordercolor="#666666" borderopacity="1" inkscape:cx="703.0535174968435" inkscape:cy="-369.60303038033" inkscape:zoom="0.7071067811865475"></sodipodi:namedview><g filter="url(#filter0_d)" id="g6591">
<path d="M878 346H960V446C960 468.644 941.644 487 919 487V487C896.356 487 878 468.644 878 446V346Z" fill="#C4C4C4" id="path2289"></path>
<path d="M878 346H960V446C960 468.644 941.644 487 919 487V487C896.356 487 878 468.644 878 446V346Z" fill="url(#paint0_linear)" id="path9489"></path>
<path d="M878 346H960V245C960 222.356 941.644 204 919 204V204C896.356 204 878 222.356 878 245V346Z" fill="#C4C4C4" id="path3067"></path>
<path d="M878 346H960V245C960 222.356 941.644 204 919 204V204C896.356 204 878 222.356 878 245V346Z" fill="url(#paint1_linear)" id="path9373"></path>
</g>
<g filter="url(#filter1_d)" id="g264">
<rect x="302" y="306" width="39" height="189" rx="19.5" fill="#C4C4C4" id="rect7124"></rect>
<rect x="302" y="306" width="39" height="189" rx="19.5" fill="url(#paint2_linear)" id="rect1826"></rect>
</g>
<g filter="url(#filter2_d)" id="g497">
<rect x="558" y="310" width="39" height="65" rx="19.5" fill="#C4C4C4" id="rect2120"></rect>
<rect x="558" y="310" width="39" height="65" rx="19.5" fill="url(#paint3_linear)" id="rect7356"></rect>
</g>
<g filter="url(#filter3_d)" id="g8786">
<rect x="783" y="364" width="39" height="65" rx="19.5" fill="#C4C4C4" id="rect6029"></rect>
<rect x="783" y="364" width="39" height="65" rx="19.5" fill="url(#paint4_linear)" id="rect8947"></rect>
</g>
<g filter="url(#filter4_d)" id="g9588">
<path d="M651 286H733V499C733 521.644 714.644 540 692 540V540C669.356 540 651 521.644 651 499V286Z" fill="#C4C4C4" id="path1872"></path>
<path d="M651 286H733V499C733 521.644 714.644 540 692 540V540C669.356 540 651 521.644 651 499V286Z" fill="url(#paint5_linear)" id="path9909"></path>
<path d="M651 286H733V116C733 93.3563 714.644 75 692 75V75C669.356 75 651 93.3563 651 116V286Z" fill="#C4C4C4" id="path4968"></path>
<path d="M651 286H733V116C733 93.3563 714.644 75 692 75V75C669.356 75 651 93.3563 651 116V286Z" fill="url(#paint6_linear)" id="path8282"></path>
</g>
<g filter="url(#filter5_d)" id="g9000">
<path d="M407 343H489V409C489 431.644 470.644 450 448 450V450C425.356 450 407 431.644 407 409V343Z" fill="#C4C4C4" id="path3358"></path>
<path d="M407 343H489V409C489 431.644 470.644 450 448 450V450C425.356 450 407 431.644 407 409V343Z" fill="url(#paint7_linear)" id="path2488"></path>
<path d="M407 343H489V214C489 191.356 470.644 173 448 173V173C425.356 173 407 191.356 407 214V343Z" fill="#C4C4C4" id="path6599"></path>
<path d="M407 343H489V214C489 191.356 470.644 173 448 173V173C425.356 173 407 191.356 407 214V343Z" fill="url(#paint8_linear)" id="path3281"></path>
</g>
<path d="M 162.755 254.52 L 162.755 258.62 L 166.795 258.62 L 166.795 260.7 L 162.755 260.7 L 162.755 265.08 L 160.515 265.08 L 160.515 260.7 L 156.475 260.7 L 156.475 258.62 L 160.515 258.62 L 160.515 254.52 L 162.755 254.52 Z M 177.627 257.14 L 177.627 261.46 L 179.587 261.46 L 179.587 263.52 L 177.627 263.52 L 177.627 266.52 L 175.107 266.52 L 175.107 263.52 L 167.927 263.52 L 167.927 261.86 L 174.487 252.1 L 177.247 252.1 L 170.947 261.46 L 175.107 261.46 L 175.107 257.14 L 177.627 257.14 Z M 183.729 266.5 L 192.349 252.1 L 194.649 252.1 L 186.049 266.5 L 183.729 266.5 Z M 184.609 251.82 C 185.663 251.82 186.496 252.133 187.109 252.76 C 187.723 253.373 188.029 254.207 188.029 255.26 L 188.029 256.04 C 188.029 257.093 187.723 257.933 187.109 258.56 C 186.496 259.173 185.663 259.48 184.609 259.48 C 183.556 259.48 182.723 259.173 182.109 258.56 C 181.496 257.933 181.189 257.093 181.189 256.04 L 181.189 255.26 C 181.189 254.207 181.496 253.373 182.109 252.76 C 182.723 252.133 183.556 251.82 184.609 251.82 Z M 184.609 257.78 C 185.169 257.78 185.549 257.62 185.749 257.3 C 185.949 256.98 186.049 256.547 186.049 256 L 186.049 255.3 C 186.049 254.767 185.949 254.34 185.749 254.02 C 185.549 253.687 185.169 253.52 184.609 253.52 C 184.049 253.52 183.669 253.687 183.469 254.02 C 183.269 254.34 183.169 254.767 183.169 255.3 L 183.169 256 C 183.169 256.547 183.269 256.98 183.469 257.3 C 183.669 257.62 184.049 257.78 184.609 257.78 Z M 193.789 259.02 C 194.843 259.02 195.676 259.333 196.289 259.96 C 196.903 260.573 197.209 261.407 197.209 262.46 L 197.209 263.24 C 197.209 264.293 196.903 265.133 196.289 265.76 C 195.676 266.373 194.843 266.68 193.789 266.68 C 192.736 266.68 191.903 266.373 191.289 265.76 C 190.676 265.133 190.369 264.293 190.369 263.24 L 190.369 262.46 C 190.369 261.407 190.676 260.573 191.289 259.96 C 191.903 259.333 192.736 259.02 193.789 259.02 Z M 193.789 264.98 C 194.349 264.98 194.729 264.82 194.929 264.5 C 195.129 264.18 195.229 263.747 195.229 263.2 L 195.229 262.5 C 195.229 261.967 195.129 261.54 194.929 261.22 C 194.729 260.887 194.349 260.72 193.789 260.72 C 193.229 260.72 192.849 260.887 192.649 261.22 C 192.449 261.54 192.349 261.967 192.349 262.5 L 192.349 263.2 C 192.349 263.747 192.449 264.18 192.649 264.5 C 192.849 264.82 193.229 264.98 193.789 264.98 Z" fill="#FF5C5C" id="path6166" style="stroke: rgb(255, 255, 255); fill: rgb(255, 255, 255);"></path>
<path d="M 776.433 127.094 L 776.433 146.346 L 795.403 146.346 L 795.403 156.113 L 776.433 156.113 L 776.433 176.68 L 765.915 176.68 L 765.915 156.113 L 746.944 156.113 L 746.944 146.346 L 765.915 146.346 L 765.915 127.094 L 776.433 127.094 Z M 846.268 139.397 L 846.268 159.682 L 855.471 159.682 L 855.471 169.355 L 846.268 169.355 L 846.268 183.442 L 834.435 183.442 L 834.435 169.355 L 800.72 169.355 L 800.72 161.56 L 831.523 115.73 L 844.483 115.73 L 814.901 159.682 L 834.435 159.682 L 834.435 139.397 L 846.268 139.397 Z M 874.922 183.348 L 915.399 115.73 L 926.199 115.73 L 885.816 183.348 L 874.922 183.348 Z M 879.054 114.416 C 884 114.416 887.913 115.887 890.793 118.83 C 893.673 121.71 895.113 125.623 895.113 130.569 L 895.113 134.231 C 895.113 139.177 893.673 143.122 890.793 146.064 C 887.913 148.944 884 150.384 879.054 150.384 C 874.108 150.384 870.195 148.944 867.315 146.064 C 864.435 143.122 862.995 139.177 862.995 134.231 L 862.995 130.569 C 862.995 125.623 864.435 121.71 867.315 118.83 C 870.195 115.887 874.108 114.416 879.054 114.416 Z M 879.054 142.402 C 881.684 142.402 883.468 141.65 884.407 140.148 C 885.346 138.645 885.816 136.61 885.816 134.043 L 885.816 130.757 C 885.816 128.252 885.346 126.249 884.407 124.746 C 883.468 123.181 881.684 122.398 879.054 122.398 C 876.425 122.398 874.64 123.181 873.701 124.746 C 872.762 126.249 872.293 128.252 872.293 130.757 L 872.293 134.043 C 872.293 136.61 872.762 138.645 873.701 140.148 C 874.64 141.65 876.425 142.402 879.054 142.402 Z M 922.16 148.224 C 927.106 148.224 931.02 149.696 933.9 152.638 C 936.78 155.518 938.22 159.431 938.22 164.377 L 938.22 168.04 C 938.22 172.986 936.78 176.93 933.9 179.873 C 931.02 182.753 927.106 184.193 922.16 184.193 C 917.214 184.193 913.301 182.753 910.421 179.873 C 907.541 176.93 906.101 172.986 906.101 168.04 L 906.101 164.377 C 906.101 159.431 907.541 155.518 910.421 152.638 C 913.301 149.696 917.214 148.224 922.16 148.224 Z M 922.16 176.21 C 924.79 176.21 926.574 175.459 927.513 173.957 C 928.453 172.454 928.922 170.419 928.922 167.852 L 928.922 164.565 C 928.922 162.061 928.453 160.057 927.513 158.555 C 926.574 156.99 924.79 156.207 922.16 156.207 C 919.531 156.207 917.746 156.99 916.807 158.555 C 915.868 160.057 915.399 162.061 915.399 164.565 L 915.399 167.852 C 915.399 170.419 915.868 172.454 916.807 173.957 C 917.746 175.459 919.531 176.21 922.16 176.21 Z" fill="url(#paint9_linear)" id="path2877" style="fill: rgb(255, 255, 255);"><animateTransform attributeName="transform" attributeType="auto" type="translate" values="0 0;0 8;0 0" calcMode="spline" keyTimes="0;0.5;1" keySplines="0 0 1 1;0 0 1 1" dur="2s" begin="0s" repeatCount="indefinite" additive="sum" accumulate="none" fill="freeze" id="animateTransform2682"></animateTransform></path>
<path d="M538.49 283.488V291.528H546.412V295.607H538.49V304.196H534.098V295.607H526.176V291.528H534.098V283.488H538.49ZM561.3 307.02V284.39L554.868 288.077L552.437 283.998L561.888 278.743H566.32V307.02H561.3ZM579.62 306.98L596.523 278.743H601.033L584.169 306.98H579.62ZM581.346 278.194C583.411 278.194 585.045 278.808 586.248 280.037C587.451 281.24 588.052 282.874 588.052 284.94V286.469C588.052 288.535 587.451 290.182 586.248 291.411C585.045 292.613 583.411 293.215 581.346 293.215C579.28 293.215 577.646 292.613 576.443 291.411C575.241 290.182 574.639 288.535 574.639 286.469V284.94C574.639 282.874 575.241 281.24 576.443 280.037C577.646 278.808 579.28 278.194 581.346 278.194ZM581.346 289.881C582.444 289.881 583.189 289.567 583.581 288.94C583.973 288.312 584.169 287.463 584.169 286.391V285.018C584.169 283.972 583.973 283.135 583.581 282.508C583.189 281.854 582.444 281.527 581.346 281.527C580.247 281.527 579.502 281.854 579.11 282.508C578.718 283.135 578.522 283.972 578.522 285.018V286.391C578.522 287.463 578.718 288.312 579.11 288.94C579.502 289.567 580.247 289.881 581.346 289.881ZM599.347 292.313C601.412 292.313 603.047 292.927 604.249 294.156C605.452 295.359 606.053 296.993 606.053 299.058V300.588C606.053 302.653 605.452 304.301 604.249 305.529C603.047 306.732 601.412 307.333 599.347 307.333C597.281 307.333 595.647 306.732 594.445 305.529C593.242 304.301 592.641 302.653 592.641 300.588V299.058C592.641 296.993 593.242 295.359 594.445 294.156C595.647 292.927 597.281 292.313 599.347 292.313ZM599.347 304C600.445 304 601.19 303.686 601.582 303.059C601.975 302.431 602.171 301.581 602.171 300.509V299.137C602.171 298.091 601.975 297.254 601.582 296.627C601.19 295.973 600.445 295.646 599.347 295.646C598.249 295.646 597.504 295.973 597.112 296.627C596.719 297.254 596.523 298.091 596.523 299.137V300.509C596.523 301.581 596.719 302.431 597.112 303.059C597.504 303.686 598.249 304 599.347 304Z" fill="url(#paint10_linear)" id="path5124" transform="matrix(1 0 0 1 12.727920914057677 -16.970563124887576)" inkscape:transform-center-x="NaN" inkscape:transform-center-y="16.970562748477107" style="fill: rgb(255, 255, 255);"></path>
<path d="M911.259 241.5L911.259 238.229L919.434 238.229L919.434 236L922.096 236L922.096 238.229L923.99 238.229C926.234 238.229 927.844 239.214 927.844 242.477C927.844 243.167 927.704 244.251 927.704 244.251L925.233 244.251L925.233 243.113C925.233 241.953 924.879 241.501 923.902 241.501L922.096 241.501L922.096 244.207L919.434 243.966L919.434 241.5L911.259 241.5ZM922.309 249.007C922.309 248.96 922.307 248.911 922.306 248.862C922.306 245.828 920.018 244.44 916.772 244.44C912.681 244.44 911.044 246.241 911.044 248.886C911.044 250.399 911.683 251.393 912.874 251.998L911.258 251.998L911.258 255.109L922.095 255.109L922.095 251.998L920.428 251.998C921.501 251.504 922.296 250.482 922.309 249.007ZM919.748 249.799C919.748 251.073 918.857 251.837 917.342 251.837L915.794 251.84C914.773 251.84 913.578 251.209 913.578 249.799C913.578 247.63 915.925 247.688 916.706 247.688C919.335 247.688 919.748 248.844 919.748 249.799ZM916.676 256.366C917.993 256.366 922.302 256.303 922.302 261.904C922.302 264.152 921.585 265.091 921.585 265.091L919.239 264.336C919.239 264.336 919.757 263.399 919.757 262.177C919.757 260.612 918.848 259.614 917.248 259.614L916.101 259.616C914.564 259.616 913.538 260.579 913.538 262.18C913.538 263.293 914.06 264.319 914.06 264.319L911.764 265.071C911.764 265.071 911.043 264.213 911.043 261.919C911.043 256.587 914.908 256.366 916.676 256.366L916.676 256.366ZM922.306 283.336C922.306 286.37 920.018 287.78 916.772 287.78C912.681 287.78 911.044 285.98 911.044 283.335C911.044 281.821 911.683 280.703 912.874 280.098L911.258 280.098L911.26 277.026L927.514 277.026L927.799 280.288L920.575 280.288C921.839 280.759 922.306 282.306 922.306 283.336L922.306 283.336ZM919.748 282.422C919.748 281.148 918.857 280.288 917.342 280.288L915.794 280.285C914.773 280.283 913.578 280.88 913.578 282.422C913.578 284.59 915.925 284.532 916.706 284.532C919.335 284.532 919.748 283.377 919.748 282.422ZM922.297 270.751C922.297 267.31 920.416 265.494 917.075 265.494L916.454 265.494C912.117 265.494 911 268.045 911 271.086C911 274.042 911.829 275.38 911.829 275.38L914.036 274.77C914.036 274.77 913.364 273.196 913.364 271.477C913.364 269.696 913.82 268.929 915.536 268.733L915.536 275.641L917.306 275.641C920.931 275.641 922.297 273.602 922.297 270.751L922.297 270.751ZM920.087 270.834C920.087 272.025 919.355 272.797 917.657 272.755L917.657 268.739C919.444 268.809 920.087 269.641 920.087 270.834L920.087 270.834ZM922.312 294.285C922.312 290.752 920.316 288.891 916.739 288.891C911.831 288.891 911.041 292.098 911.041 294.291C911.041 297.501 912.774 299.637 916.694 299.637C920.775 299.637 922.312 297.236 922.312 294.285V294.285ZM919.739 294.241C919.739 295.794 918.574 296.41 917.247 296.41L916.106 296.41C914.499 296.41 913.569 295.549 913.569 294.235C913.569 293.006 914.439 292.142 916.106 292.142L917.247 292.142C919.025 292.142 919.739 293.17 919.739 294.241V294.241ZM922.312 306.136C922.312 302.603 920.316 300.743 916.739 300.743C911.831 300.743 911.041 303.949 911.041 306.142C911.041 309.353 912.774 311.489 916.694 311.489C920.775 311.489 922.312 309.087 922.312 306.136V306.136ZM919.739 306.092C919.739 307.646 918.574 308.261 917.247 308.261L916.106 308.261C914.499 308.261 913.569 307.4 913.569 306.086C913.569 304.857 914.439 303.994 916.106 303.994L917.247 303.994C919.025 303.994 919.739 305.021 919.739 306.092V306.092ZM911.259 312.722L927.514 312.722L927.799 315.993L916.904 315.993L922.096 319.239L922.096 322.695L916.719 319.309L911.259 322.825L911.259 319.36L916.561 315.993L911.259 315.993L911.259 312.722Z" fill="white" id="path3148"></path>
<path d="M426.66 299.622V303.722H430.7V305.802H426.66V310.182H424.42V305.802H420.38V303.722H424.42V299.622H426.66ZM438.292 311.622V300.082L435.012 301.962L433.772 299.882L438.592 297.202H440.852V311.622H438.292ZM446.095 309.942H448.635V312.542H446.095V309.942ZM459.65 306.802C459.65 306.028 459.423 305.435 458.97 305.022C458.53 304.608 457.91 304.402 457.11 304.402C456.497 304.402 455.963 304.515 455.51 304.742C455.07 304.968 454.69 305.235 454.37 305.542H452.65L453.11 297.202H461.29V299.322H455.41L455.25 303.082C455.583 302.882 455.963 302.708 456.39 302.562C456.817 302.415 457.33 302.342 457.93 302.342C458.623 302.342 459.237 302.462 459.77 302.702C460.303 302.942 460.75 303.268 461.11 303.682C461.483 304.082 461.763 304.548 461.95 305.082C462.137 305.615 462.23 306.168 462.23 306.742V307.042C462.23 307.615 462.13 308.188 461.93 308.762C461.743 309.335 461.437 309.848 461.01 310.302C460.597 310.755 460.063 311.122 459.41 311.402C458.77 311.695 457.997 311.842 457.09 311.842C456.05 311.842 455.117 311.722 454.29 311.482C453.463 311.255 452.69 310.842 451.97 310.242L453.21 308.222C453.543 308.488 453.87 308.708 454.19 308.882C454.51 309.055 454.823 309.188 455.13 309.282C455.45 309.375 455.77 309.442 456.09 309.482C456.41 309.508 456.737 309.522 457.07 309.522C457.95 309.522 458.597 309.288 459.01 308.822C459.437 308.342 459.65 307.742 459.65 307.022V306.802ZM466.892 311.602L475.512 297.202H477.812L469.212 311.602H466.892ZM467.772 296.922C468.826 296.922 469.659 297.235 470.272 297.862C470.886 298.475 471.192 299.308 471.192 300.362V301.142C471.192 302.195 470.886 303.035 470.272 303.662C469.659 304.275 468.826 304.582 467.772 304.582C466.719 304.582 465.886 304.275 465.272 303.662C464.659 303.035 464.352 302.195 464.352 301.142V300.362C464.352 299.308 464.659 298.475 465.272 297.862C465.886 297.235 466.719 296.922 467.772 296.922ZM467.772 302.882C468.332 302.882 468.712 302.722 468.912 302.402C469.112 302.082 469.212 301.648 469.212 301.102V300.402C469.212 299.868 469.112 299.442 468.912 299.122C468.712 298.788 468.332 298.622 467.772 298.622C467.212 298.622 466.832 298.788 466.632 299.122C466.432 299.442 466.332 299.868 466.332 300.402V301.102C466.332 301.648 466.432 302.082 466.632 302.402C466.832 302.722 467.212 302.882 467.772 302.882ZM476.952 304.122C478.006 304.122 478.839 304.435 479.452 305.062C480.066 305.675 480.372 306.508 480.372 307.562V308.342C480.372 309.395 480.066 310.235 479.452 310.862C478.839 311.475 478.006 311.782 476.952 311.782C475.899 311.782 475.066 311.475 474.452 310.862C473.839 310.235 473.532 309.395 473.532 308.342V307.562C473.532 306.508 473.839 305.675 474.452 305.062C475.066 304.435 475.899 304.122 476.952 304.122ZM476.952 310.082C477.512 310.082 477.892 309.922 478.092 309.602C478.292 309.282 478.392 308.848 478.392 308.302V307.602C478.392 307.068 478.292 306.642 478.092 306.322C477.892 305.988 477.512 305.822 476.952 305.822C476.392 305.822 476.012 305.988 475.812 306.322C475.612 306.642 475.512 307.068 475.512 307.602V308.302C475.512 308.848 475.612 309.282 475.812 309.602C476.012 309.922 476.392 310.082 476.952 310.082Z" fill="white" id="path5429"></path>
<path d="M685.177 149.623L683.332 149.623L683.332 146.163L705.132 146.163L705.132 149.796L697.664 149.796C698.029 150.046 698.336 150.354 698.586 150.719C698.836 151.104 699.029 151.488 699.163 151.873C699.317 152.276 699.423 152.67 699.48 153.055C699.538 153.459 699.567 153.824 699.567 154.151C699.567 155.17 699.403 156.064 699.077 156.833C698.769 157.621 698.317 158.274 697.721 158.793C697.125 159.313 696.414 159.697 695.587 159.947C694.761 160.216 693.828 160.351 692.79 160.351L689.993 160.351C688.916 160.351 687.945 160.197 687.08 159.889C686.234 159.582 685.514 159.149 684.918 158.592C684.341 158.034 683.899 157.361 683.591 156.573C683.264 155.804 683.101 154.939 683.101 153.978C683.101 152.92 683.293 152.036 683.678 151.325C684.062 150.613 684.562 150.075 685.177 149.71L685.177 149.623ZM692.213 156.746C693.559 156.746 694.597 156.487 695.328 155.967C696.078 155.448 696.452 154.602 696.452 153.43C696.452 152.219 696.097 151.296 695.385 150.661C694.693 150.046 693.799 149.739 692.704 149.739L689.33 149.739C688.964 149.739 688.59 149.835 688.205 150.027C687.84 150.219 687.503 150.479 687.196 150.806C686.907 151.132 686.667 151.527 686.475 151.988C686.283 152.449 686.186 152.959 686.186 153.516C686.186 154.574 686.552 155.371 687.282 155.91C688.032 156.467 689.07 156.746 690.397 156.746L692.213 156.746ZM705.132 163.848L705.132 167.482L683.332 167.482L683.332 163.848L705.132 163.848ZM686.273 178.421C686.273 178.96 686.35 179.46 686.504 179.921C686.657 180.382 686.898 180.777 687.225 181.103C687.551 181.449 687.984 181.719 688.522 181.911C689.061 182.103 689.705 182.199 690.454 182.199L692.213 182.199C693.732 182.199 694.809 181.853 695.443 181.161C696.078 180.488 696.395 179.575 696.395 178.421C696.395 177.268 696.078 176.345 695.443 175.653C694.809 174.98 693.732 174.644 692.213 174.644L690.454 174.644C689.705 174.644 689.061 174.74 688.522 174.932C687.984 175.124 687.551 175.384 687.225 175.711C686.898 176.057 686.657 176.461 686.504 176.922C686.35 177.383 686.273 177.883 686.273 178.421ZM683.101 178.421C683.101 177.287 683.264 176.259 683.591 175.336C683.918 174.432 684.389 173.654 685.004 173C685.619 172.366 686.379 171.866 687.282 171.501C688.205 171.155 689.243 170.981 690.397 170.981L692.271 170.981C693.444 170.981 694.482 171.155 695.385 171.501C696.289 171.866 697.048 172.366 697.664 173C698.279 173.654 698.75 174.432 699.077 175.336C699.403 176.259 699.567 177.287 699.567 178.421C699.567 179.537 699.403 180.555 699.077 181.478C698.75 182.401 698.279 183.18 697.664 183.814C697.048 184.468 696.289 184.968 695.385 185.314C694.482 185.679 693.444 185.861 692.271 185.861L690.397 185.861C689.243 185.861 688.205 185.679 687.282 185.314C686.379 184.968 685.619 184.468 685.004 183.814C684.389 183.18 683.918 182.401 683.591 181.478C683.264 180.555 683.101 179.537 683.101 178.421ZM685.465 199.109L685.465 199.052C684.696 198.629 684.158 198.023 683.851 197.235C683.543 196.447 683.389 195.572 683.389 194.611C683.389 192.573 683.976 191.044 685.148 190.026C686.34 189.026 688.013 188.526 690.166 188.526L692.675 188.526C693.732 188.526 694.684 188.67 695.53 188.959C696.395 189.266 697.125 189.699 697.721 190.256C698.317 190.814 698.769 191.477 699.077 192.246C699.403 193.034 699.567 193.909 699.567 194.87C699.567 195.485 699.509 196.033 699.394 196.514C699.279 196.995 699.134 197.408 698.961 197.754C698.788 198.119 698.596 198.417 698.385 198.648C698.192 198.879 698.01 199.052 697.837 199.167L697.837 199.196L699.221 199.196L699.221 202.685L683.476 202.685C681.265 202.685 679.621 202.08 678.545 200.868C677.449 199.657 676.901 197.744 676.901 195.13C676.901 194.13 677.064 193.13 677.391 192.131C677.718 191.15 678.131 190.333 678.631 189.68L681.457 191.323C681.323 191.477 681.178 191.698 681.025 191.986C680.852 192.275 680.698 192.592 680.563 192.938C680.429 193.284 680.323 193.649 680.246 194.034C680.15 194.418 680.102 194.803 680.102 195.187C680.102 196.475 680.381 197.446 680.938 198.1C681.476 198.773 682.332 199.109 683.505 199.109L685.465 199.109ZM690.714 192.102C689.368 192.102 688.32 192.371 687.571 192.909C686.84 193.467 686.475 194.274 686.475 195.332C686.475 195.928 686.571 196.456 686.763 196.918C686.975 197.398 687.253 197.792 687.599 198.1C687.965 198.427 688.378 198.677 688.839 198.85C689.32 199.023 689.83 199.109 690.368 199.109L693.309 199.109C693.674 199.109 694.04 199.032 694.405 198.879C694.79 198.744 695.126 198.523 695.414 198.215C695.722 197.927 695.972 197.552 696.164 197.091C696.356 196.648 696.452 196.11 696.452 195.476C696.452 194.322 696.078 193.467 695.328 192.909C694.578 192.371 693.54 192.102 692.213 192.102L690.714 192.102Z" fill="white" id="path1743"></path>
<path d="M37.9277 387.03L174.903 296.966L324.223 398.794L444.283 344.393H575.179L692.796 220.481L802.689 398.794L915.699 344.393L1016.5 204" stroke="#FF5C5C" stroke-width="3" id="path9207" anigen:original-d="M37.9277 387.03L174.903 296.966L324.223 398.794L444.283 344.393H575.179L692.796 287.481L802.689 398.794L915.699 344.393L1016.5 204" style="stroke: rgb(255, 255, 255);"><animate attributeType="auto" attributeName="d" values="M37.9277 387.03L174.903 296.966L324.223 398.794L444.283 344.393H575.179L692.796 220.481L802.689 398.794L915.699 344.393L1016.5 204;M37.9277 387.03L174.903 296.966L324.223 398.794L444.283 344.393H575.179L692.796 487.481L802.689 398.794L915.699 344.393L1016.5 204;M37.9277 387.03L174.903 296.966L324.223 398.794L444.283 344.393H575.179L692.796 220.481L802.689 398.794L915.699 344.393L1016.5 204" calcMode="spline" keyTimes="0;0.5;1" keySplines=".25 0 .75 1;.25 0 .75 1" dur="2s" begin="0s" repeatCount="indefinite" additive="replace" accumulate="none" fill="freeze" id="animate8323"></animate></path>
<g filter="url(#filter6_d)" id="g7217">
<circle cx="41.0743" cy="386.037" r="10.0743" fill="white" id="circle7061"></circle>
</g>
<g filter="url(#filter7_d)" id="g5143">
<circle cx="176.355" cy="297.25" r="10.0743" fill="white" id="circle9322"></circle>
</g>
<g filter="url(#filter8_d)" id="g943">
<circle cx="322.669" cy="398.793" r="10.0743" fill="white" id="circle326"></circle>
</g>
<g filter="url(#filter9_d)" id="g788">
<circle cx="447.696" cy="342.862" r="10.0743" fill="white" id="circle4885"></circle>
</g>
<g filter="url(#filter10_d)" id="g7051">
<circle cx="576.763" cy="342.862" r="10.0743" fill="white" id="circle7788"></circle>
</g>
<g filter="url(#filter11_d)" id="g6989">
<circle cx="692.375" cy="287.176" r="10.0743" fill="white" id="circle6188"></circle>
<animateTransform attributeName="transform" attributeType="auto" type="translate" values="0 -60;0 192;0 -60" calcMode="spline" keyTimes="0;0.5;1" keySplines=".25 0 .75 1;.25 0 .75 1" dur="2s" begin="0s" repeatCount="indefinite" additive="sum" accumulate="none" fill="freeze" id="animateTransform6165"></animateTransform></g>
<g filter="url(#filter12_d)" id="g5306">
<circle cx="802.396" cy="396.02" r="10.0743" fill="white" id="circle8583"></circle>
</g>
<g filter="url(#filter13_d)" id="g1006">
<circle cx="916.089" cy="342.861" r="10.0743" fill="white" id="circle3903"></circle>
</g>
<g filter="url(#filter14_d)" id="g2247">
<circle cx="1017.07" cy="204.074" r="10.0743" fill="white" id="circle343"></circle>
</g>
<path d="M707.492 118.218L707.492 108L680.294 108L680.294 118.179L689.132 118.179C692.388 118.179 692.701 117.869 694.578 117.519C694.578 117.519 694.962 117.555 694.578 117.829C694.194 118.104 680.294 127.196 680.294 127.196L680.294 137.375L707.492 137.375L707.492 127.196L699.339 127.196C695.709 127.196 694.688 127.66 692.414 128.088C692.414 128.088 692.021 128.054 692.414 127.777C692.809 127.5 707.492 118.218 707.492 118.218Z" fill="white" id="path8385"></path>
<path d="M457.909 205.807C457.275 204.293 455.486 202.629 453.238 202.103C450.391 201.437 449.187 204.208 449.581 204.435C450.045 204.702 450.202 203.938 451.679 203.781C453.587 203.578 455.719 204.465 456.655 205.581C456.829 205.789 456.587 205.779 456.139 205.779C455.339 205.779 448.156 205.735 446.657 205.735C444.629 205.735 443.988 205.651 443.355 205.501C442.714 205.348 442.28 205.103 442.113 205.289C441.927 205.496 442.371 206.382 443.087 206.895C443.945 207.51 444.976 207.725 446.096 207.764C447.446 207.811 449.588 207.809 450.809 207.811C451.93 207.813 455.211 207.83 457.183 207.791C457.667 207.782 458.175 206.44 457.909 205.807Z" fill="white" id="path3579"></path>
<path d="M448.416 259.565C447.362 259.516 446.537 259.283 445.956 258.993C444.83 258.432 444.481 257.268 446.099 256.774C446.981 256.505 448.454 256.492 449.685 256.686C450.939 256.883 451.886 257.433 451.8 258.345C451.716 259.243 450.558 259.664 448.416 259.565ZM441.874 244.413C440.121 244.401 438.585 244.125 438.139 243.534C437.506 242.695 437.981 241.568 439.259 241.801C440.391 242.008 441.546 242.985 442.958 244.416C442.958 244.416 442.636 244.419 441.874 244.413ZM448.427 244.184C447.466 244.133 446.501 243.884 445.956 243.612C444.83 243.052 444.479 241.879 446.099 241.394C447.206 241.061 448.639 241.141 449.542 241.305C450.713 241.519 451.8 242.036 451.8 242.964C451.8 243.866 450.81 244.312 448.427 244.184ZM448.441 235.407C447.424 235.352 446.574 235.154 445.956 234.835C444.838 234.259 444.484 233.119 446.099 232.616C447.264 232.254 448.852 232.377 449.71 232.528C450.983 232.752 451.886 233.312 451.8 234.187C451.712 235.085 450.558 235.522 448.441 235.407ZM447.253 275.631C447.253 275.411 447.027 275.311 446.646 275.228C445.321 274.941 445.022 274.638 445.022 274.249C445.022 273.813 445.678 273.422 446.991 273.321C448.024 273.242 449.925 273.255 451.816 273.356C452.204 273.377 452.589 273.269 452.967 272.227C453.13 271.779 453.37 271.127 452.587 270.802C450.373 269.885 448.616 269.526 447.902 269.442C447.865 269.438 447.858 269.392 447.944 269.384C448.516 269.331 449.555 269.21 451.737 269.195C452.163 269.193 452.526 269.102 452.823 268.632C453.015 268.327 453.356 267.401 452.951 267.067C452.619 266.778 451.727 266.444 450.67 266.096C449.811 265.813 449.23 265.617 449.23 265.617C449.23 265.617 451.548 265.62 452.428 265.624C452.759 265.625 452.87 265.398 452.89 265.329C452.979 265.02 453.129 264.412 453.129 264.153C453.129 263.835 452.951 263.756 452.692 263.756C452.658 263.756 449.639 263.706 447.528 263.706C447.437 263.706 447.337 263.706 447.23 263.707C446.26 263.53 444.943 262.959 444.943 262.337C444.943 261.714 445.494 261.421 448.01 261.421C449.478 261.421 450.116 261.465 451.178 261.487C451.79 261.499 452.259 261.523 452.366 261.522C452.693 261.517 452.857 260.952 452.918 260.689C452.979 260.425 453.003 260.196 452.993 260.016C452.979 259.763 452.812 259.583 452.583 259.583C452.461 259.583 452.227 259.584 452.227 259.584C452.741 259.258 453.098 258.732 453.202 258.382C453.482 257.44 453.234 256.457 452.196 255.716C451.372 255.127 450.438 254.772 449.097 254.632C448.116 254.53 447.122 254.563 446.281 254.745C445.332 254.525 444.943 254.118 444.943 253.671C444.943 253.024 446.001 252.554 447.829 252.609C449.032 252.645 449.876 252.885 451.097 253.148C451.617 253.26 451.89 253.169 452.151 252.941C452.391 252.731 452.513 252.284 452.363 251.642C452.255 251.185 452.14 250.531 452.051 249.933C452.051 249.933 452.195 249.969 452.449 249.998C453.781 250.154 453.673 248.707 453.248 248.245C452.994 247.969 452.694 247.782 452.156 247.71C451.301 247.597 450.898 248.295 450.898 248.295C449.851 248.066 448.483 247.505 447.494 246.926C446.965 246.616 446.572 246.379 446.155 246.073C446.31 246.072 446.466 246.071 446.62 246.071C448.821 246.064 450.554 246.093 451.178 246.106C451.79 246.118 452.247 246.143 452.353 246.142C452.592 246.138 452.683 245.999 452.797 245.708C452.898 245.451 452.968 245.148 452.992 244.833C453.023 244.436 452.813 244.196 452.563 244.203C452.516 244.204 452.227 244.204 452.227 244.204C452.741 243.877 453.098 243.351 453.202 243.002C453.481 242.06 453.234 241.077 452.196 240.335C451.372 239.746 450.215 239.36 449.107 239.251C448.075 239.149 447.197 239.168 446.458 239.307C445.717 239.157 444.943 238.726 444.943 238.24C444.943 237.617 445.494 237.263 448.01 237.263C449.478 237.263 450.116 237.307 451.178 237.329C451.79 237.341 452.259 237.365 452.366 237.364C452.693 237.36 452.857 236.794 452.918 236.531C452.982 236.256 453.005 236.019 452.992 235.836C452.974 235.596 452.758 235.427 452.598 235.427L452.227 235.427C452.741 235.1 453.098 234.574 453.202 234.224C453.481 233.282 453.23 232.305 452.196 231.558C451.522 231.071 450.776 230.677 449.122 230.474C448.644 230.415 448.197 230.389 447.778 230.393C446.591 230.199 445.222 229.341 445.222 228.639C445.222 228.228 446.018 227.837 447.715 227.837C449.976 227.837 453.195 227.977 453.505 228.001C453.505 228.001 453.52 228.888 453.522 229.059C453.527 229.501 453.517 229.902 453.547 230.491C453.562 230.786 454.622 231.071 454.753 230.766C454.813 230.628 454.865 229.651 454.873 229.264C454.88 228.938 454.948 228.032 454.948 228.032C454.948 228.032 457.084 228.113 457.31 228.132C457.498 228.148 457.595 227.905 457.654 227.765C457.797 227.426 457.866 227.122 457.94 226.763C458.043 226.265 457.942 226.04 457.523 225.996C456.886 225.929 455.02 225.895 455.02 225.895C455.02 225.53 455.091 224.284 455.091 223.918C455.091 223.579 453.633 223.213 453.615 223.682C453.594 224.222 453.576 225.162 453.557 225.785C453.557 225.785 450.285 225.757 449.275 225.757C449.167 225.757 449.064 225.758 448.964 225.758C447.176 225.415 446.21 224.207 446.21 224.207C447.393 224.467 448.281 223.937 449.033 222.982C449.31 222.63 449.834 221.936 450.409 221.159C450.409 221.159 450.853 221.609 451.745 222.008C452.377 222.291 453.1 222.303 453.259 221.609C453.523 220.462 452.681 219.517 451.782 219.235C451.086 219.017 450.569 219.133 450.032 219.561C449.993 219.592 449.953 219.626 449.912 219.661C449.414 219.402 448.742 219.047 448.221 218.746C446.775 217.91 445.631 217.278 445.631 216.801C445.631 216.42 446.792 216.425 447.88 216.425C448.817 216.425 450.226 216.494 451.685 216.549C452.168 216.568 452.443 216.326 452.692 215.922C452.843 215.676 453.141 215.151 453.141 214.848C453.141 214.393 453.079 213.081 449.493 211.842C449.041 211.685 448.218 211.379 448.218 211.379L452.53 211.405C452.631 211.405 452.728 211.351 452.795 211.228C452.909 211.019 453.141 210.461 453.141 209.965C453.141 209.729 453.031 209.611 452.812 209.611L446.066 209.568C445.553 209.568 444.955 209.581 444.694 209.632C444.432 209.682 444.219 209.764 444.092 209.865C443.966 209.966 443.869 210.083 443.83 210.276C443.793 210.456 443.666 211.439 444.042 211.49C444.492 211.551 444.98 211.554 446.796 212.07C449.624 212.874 451.004 213.922 451.494 214.414C451.579 214.5 451.584 214.599 451.444 214.594C450.824 214.573 449.275 214.499 447.959 214.449C444.437 214.316 443.784 214.957 443.784 215.872C443.784 216.573 444.48 217.56 446.242 218.619C447.34 219.279 448.417 219.92 449.193 220.38C448.895 220.701 448.576 221.061 448.234 221.421C447.441 222.257 446.687 222.531 445.971 222.349C445.424 222.21 444.861 221.685 445.409 220.752C445.569 220.479 445.692 220.363 445.872 220.09C445.969 219.943 445.998 219.718 445.896 219.584C445.633 219.234 445.298 219.034 444.883 218.92C444.479 218.809 444.265 219.213 444.078 219.633C443.918 219.994 443.772 220.77 443.755 221.265C443.691 223.193 444.686 224.737 447.254 225.813C445.037 226.005 443.782 226.824 443.782 228.248C443.782 229.199 445.012 230.153 446.222 230.57C445.728 230.69 445.299 230.867 444.937 231.096C443.199 232.193 443.573 234.321 445.049 235.389C445.505 235.72 445.668 235.77 445.668 235.77C444.275 235.926 443.788 237.048 443.788 237.69C443.788 238.41 444.128 239.153 445.301 239.673C445.173 239.734 445.052 239.801 444.937 239.874C443.199 240.97 443.573 243.098 445.049 244.167C445.118 244.217 445.181 244.261 445.237 244.299L444.322 244.33C444.322 244.33 443.763 243.721 443.419 243.346C441.908 241.697 440.761 240.444 439.426 240.352C437.724 240.235 437.091 241.615 437.008 242.66C436.92 243.769 437.533 244.719 438.391 245.303C439.145 245.816 440.77 246.153 442.375 246.128C443.017 246.118 443.834 246.102 444.71 246.089C445.382 246.668 446.232 247.32 447.226 247.921C448.31 248.575 449.766 249.277 450.899 249.636C450.899 249.636 450.893 250.245 450.936 250.896C450.95 251.104 450.907 251.164 450.755 251.125C450.57 251.079 447.58 250.303 445.588 251.011C444.225 251.495 443.786 252.587 443.786 253.234C443.786 253.992 444.358 254.717 445.208 255.105C445.113 255.152 445.021 255.201 444.937 255.254C443.199 256.351 443.575 258.471 445.049 259.547C445.381 259.79 445.668 259.928 445.668 259.928C444.226 260.159 443.781 261.28 443.781 261.923C443.781 262.592 444.055 263.227 445.274 263.742C444.737 263.763 444.299 263.797 444.16 263.851C444.076 263.883 443.969 264.073 443.918 264.212C443.691 264.824 443.799 265.448 443.845 265.679C443.878 265.839 444.006 265.964 444.337 265.981C445.208 266.025 446.67 265.998 447.756 266.262C449.58 266.705 450.287 267.118 450.638 267.314C450.834 267.423 450.866 267.547 450.659 267.552C450.238 267.561 449.005 267.582 447.347 267.753C446.128 267.879 445.407 268.048 445.179 268.177C444.526 268.546 444.496 269.002 444.496 269.373C444.496 269.609 444.561 270.103 444.976 270.059C445.178 270.038 446.429 270.075 448.225 270.512C449.398 270.797 450.458 271.272 450.846 271.444C450.989 271.507 450.876 271.536 450.854 271.535C450.046 271.499 447.404 271.418 445.958 271.747C444 272.194 443.781 273.484 443.781 273.934C443.781 274.894 444.511 275.68 446.433 275.944C446.896 276.008 447.253 275.914 447.253 275.631Z" fill="white" id="path3820"></path>
<defs id="defs8126">
<filter id="filter0_d" x="867" y="197" width="104" height="305" filterUnits="userSpaceOnUse" color-interpolation-filters="sRGB">
<feFlood flood-opacity="0" result="BackgroundImageFix" id="feFlood8293"></feFlood>
<feColorMatrix in="SourceAlpha" type="matrix" values="0 0 0 0 0 0 0 0 0 0 0 0 0 0 0 0 0 0 127 0" id="feColorMatrix7658"></feColorMatrix>
<feOffset dy="4" id="feOffset8668"></feOffset>
<feGaussianBlur stdDeviation="5.5" id="feGaussianBlur2314"></feGaussianBlur>
<feColorMatrix type="matrix" values="0 0 0 0 0 0 0 0 0 0 0 0 0 0 0 0 0 0 0.25 0" id="feColorMatrix5969"></feColorMatrix>
<feBlend mode="normal" in2="BackgroundImageFix" result="effect1_dropShadow" id="feBlend5440"></feBlend>
<feBlend mode="normal" in="SourceGraphic" in2="effect1_dropShadow" result="shape" id="feBlend3810"></feBlend>
</filter>
<filter id="filter1_d" x="291" y="299" width="61" height="211" filterUnits="userSpaceOnUse" color-interpolation-filters="sRGB">
<feFlood flood-opacity="0" result="BackgroundImageFix" id="feFlood9021"></feFlood>
<feColorMatrix in="SourceAlpha" type="matrix" values="0 0 0 0 0 0 0 0 0 0 0 0 0 0 0 0 0 0 127 0" id="feColorMatrix7998"></feColorMatrix>
<feOffset dy="4" id="feOffset2516"></feOffset>
<feGaussianBlur stdDeviation="5.5" id="feGaussianBlur7448"></feGaussianBlur>
<feColorMatrix type="matrix" values="0 0 0 0 0 0 0 0 0 0 0 0 0 0 0 0 0 0 0.25 0" id="feColorMatrix1677"></feColorMatrix>
<feBlend mode="normal" in2="BackgroundImageFix" result="effect1_dropShadow" id="feBlend9782"></feBlend>
<feBlend mode="normal" in="SourceGraphic" in2="effect1_dropShadow" result="shape" id="feBlend8766"></feBlend>
</filter>
<filter id="filter2_d" x="547" y="303" width="61" height="87" filterUnits="userSpaceOnUse" color-interpolation-filters="sRGB">
<feFlood flood-opacity="0" result="BackgroundImageFix" id="feFlood3165"></feFlood>
<feColorMatrix in="SourceAlpha" type="matrix" values="0 0 0 0 0 0 0 0 0 0 0 0 0 0 0 0 0 0 127 0" id="feColorMatrix7590"></feColorMatrix>
<feOffset dy="4" id="feOffset8496"></feOffset>
<feGaussianBlur stdDeviation="5.5" id="feGaussianBlur6281"></feGaussianBlur>
<feColorMatrix type="matrix" values="0 0 0 0 0 0 0 0 0 0 0 0 0 0 0 0 0 0 0.25 0" id="feColorMatrix7477"></feColorMatrix>
<feBlend mode="normal" in2="BackgroundImageFix" result="effect1_dropShadow" id="feBlend892"></feBlend>
<feBlend mode="normal" in="SourceGraphic" in2="effect1_dropShadow" result="shape" id="feBlend850"></feBlend>
</filter>
<filter id="filter3_d" x="772" y="357" width="61" height="87" filterUnits="userSpaceOnUse" color-interpolation-filters="sRGB">
<feFlood flood-opacity="0" result="BackgroundImageFix" id="feFlood1685"></feFlood>
<feColorMatrix in="SourceAlpha" type="matrix" values="0 0 0 0 0 0 0 0 0 0 0 0 0 0 0 0 0 0 127 0" id="feColorMatrix1198"></feColorMatrix>
<feOffset dy="4" id="feOffset4732"></feOffset>
<feGaussianBlur stdDeviation="5.5" id="feGaussianBlur6471"></feGaussianBlur>
<feColorMatrix type="matrix" values="0 0 0 0 0 0 0 0 0 0 0 0 0 0 0 0 0 0 0.25 0" id="feColorMatrix6720"></feColorMatrix>
<feBlend mode="normal" in2="BackgroundImageFix" result="effect1_dropShadow" id="feBlend6256"></feBlend>
<feBlend mode="normal" in="SourceGraphic" in2="effect1_dropShadow" result="shape" id="feBlend5181"></feBlend>
</filter>
<filter id="filter4_d" x="587" y="55" width="210" height="593" filterUnits="userSpaceOnUse" color-interpolation-filters="sRGB">
<feFlood flood-opacity="0" result="BackgroundImageFix" id="feFlood3025"></feFlood>
<feColorMatrix in="SourceAlpha" type="matrix" values="0 0 0 0 0 0 0 0 0 0 0 0 0 0 0 0 0 0 127 0" id="feColorMatrix2175"></feColorMatrix>
<feOffset dy="44" id="feOffset2918"></feOffset>
<feGaussianBlur stdDeviation="32" id="feGaussianBlur8912"></feGaussianBlur>
<feColorMatrix type="matrix" values="0 0 0 0 0.816623 0 0 0 0 0.605897 0 0 0 0 0.487363 0 0 0 1 0" id="feColorMatrix8414"></feColorMatrix>
<feBlend mode="normal" in2="BackgroundImageFix" result="effect1_dropShadow" id="feBlend778"></feBlend>
<feBlend mode="normal" in="SourceGraphic" in2="effect1_dropShadow" result="shape" id="feBlend9956"></feBlend>
</filter>
<filter id="filter5_d" x="396" y="166" width="104" height="299" filterUnits="userSpaceOnUse" color-interpolation-filters="sRGB">
<feFlood flood-opacity="0" result="BackgroundImageFix" id="feFlood2120"></feFlood>
<feColorMatrix in="SourceAlpha" type="matrix" values="0 0 0 0 0 0 0 0 0 0 0 0 0 0 0 0 0 0 127 0" id="feColorMatrix8598"></feColorMatrix>
<feOffset dy="4" id="feOffset5245"></feOffset>
<feGaussianBlur stdDeviation="5.5" id="feGaussianBlur2770"></feGaussianBlur>
<feColorMatrix type="matrix" values="0 0 0 0 0 0 0 0 0 0 0 0 0 0 0 0 0 0 0.25 0" id="feColorMatrix5955"></feColorMatrix>
<feBlend mode="normal" in2="BackgroundImageFix" result="effect1_dropShadow" id="feBlend5957"></feBlend>
<feBlend mode="normal" in="SourceGraphic" in2="effect1_dropShadow" result="shape" id="feBlend8098"></feBlend>
</filter>
<filter id="filter6_d" x="27" y="373.963" width="28.1486" height="28.1486" filterUnits="userSpaceOnUse" color-interpolation-filters="sRGB">
<feFlood flood-opacity="0" result="BackgroundImageFix" id="feFlood1381"></feFlood>
<feColorMatrix in="SourceAlpha" type="matrix" values="0 0 0 0 0 0 0 0 0 0 0 0 0 0 0 0 0 0 127 0" id="feColorMatrix5764"></feColorMatrix>
<feOffset dy="2" id="feOffset6560"></feOffset>
<feGaussianBlur stdDeviation="2" id="feGaussianBlur741"></feGaussianBlur>
<feColorMatrix type="matrix" values="0 0 0 0 0 0 0 0 0 0 0 0 0 0 0 0 0 0 0.5 0" id="feColorMatrix2273"></feColorMatrix>
<feBlend mode="normal" in2="BackgroundImageFix" result="effect1_dropShadow" id="feBlend8643"></feBlend>
<feBlend mode="normal" in="SourceGraphic" in2="effect1_dropShadow" result="shape" id="feBlend1276"></feBlend>
</filter>
<filter id="filter7_d" x="162.28" y="285.176" width="28.1486" height="28.1486" filterUnits="userSpaceOnUse" color-interpolation-filters="sRGB">
<feFlood flood-opacity="0" result="BackgroundImageFix" id="feFlood2705"></feFlood>
<feColorMatrix in="SourceAlpha" type="matrix" values="0 0 0 0 0 0 0 0 0 0 0 0 0 0 0 0 0 0 127 0" id="feColorMatrix2207"></feColorMatrix>
<feOffset dy="2" id="feOffset5996"></feOffset>
<feGaussianBlur stdDeviation="2" id="feGaussianBlur369"></feGaussianBlur>
<feColorMatrix type="matrix" values="0 0 0 0 0 0 0 0 0 0 0 0 0 0 0 0 0 0 0.5 0" id="feColorMatrix8547"></feColorMatrix>
<feBlend mode="normal" in2="BackgroundImageFix" result="effect1_dropShadow" id="feBlend6314"></feBlend>
<feBlend mode="normal" in="SourceGraphic" in2="effect1_dropShadow" result="shape" id="feBlend4846"></feBlend>
</filter>
<filter id="filter8_d" x="308.595" y="386.719" width="28.1486" height="28.1486" filterUnits="userSpaceOnUse" color-interpolation-filters="sRGB">
<feFlood flood-opacity="0" result="BackgroundImageFix" id="feFlood6420"></feFlood>
<feColorMatrix in="SourceAlpha" type="matrix" values="0 0 0 0 0 0 0 0 0 0 0 0 0 0 0 0 0 0 127 0" id="feColorMatrix6046"></feColorMatrix>
<feOffset dy="2" id="feOffset7596"></feOffset>
<feGaussianBlur stdDeviation="2" id="feGaussianBlur8979"></feGaussianBlur>
<feColorMatrix type="matrix" values="0 0 0 0 0 0 0 0 0 0 0 0 0 0 0 0 0 0 0.5 0" id="feColorMatrix4574"></feColorMatrix>
<feBlend mode="normal" in2="BackgroundImageFix" result="effect1_dropShadow" id="feBlend3440"></feBlend>
<feBlend mode="normal" in="SourceGraphic" in2="effect1_dropShadow" result="shape" id="feBlend7786"></feBlend>
</filter>
<filter id="filter9_d" x="433.622" y="330.787" width="28.1486" height="28.1486" filterUnits="userSpaceOnUse" color-interpolation-filters="sRGB">
<feFlood flood-opacity="0" result="BackgroundImageFix" id="feFlood1929"></feFlood>
<feColorMatrix in="SourceAlpha" type="matrix" values="0 0 0 0 0 0 0 0 0 0 0 0 0 0 0 0 0 0 127 0" id="feColorMatrix596"></feColorMatrix>
<feOffset dy="2" id="feOffset8051"></feOffset>
<feGaussianBlur stdDeviation="2" id="feGaussianBlur9452"></feGaussianBlur>
<feColorMatrix type="matrix" values="0 0 0 0 0 0 0 0 0 0 0 0 0 0 0 0 0 0 0.5 0" id="feColorMatrix4356"></feColorMatrix>
<feBlend mode="normal" in2="BackgroundImageFix" result="effect1_dropShadow" id="feBlend1030"></feBlend>
<feBlend mode="normal" in="SourceGraphic" in2="effect1_dropShadow" result="shape" id="feBlend8025"></feBlend>
</filter>
<filter id="filter10_d" x="562.688" y="330.787" width="28.1486" height="28.1486" filterUnits="userSpaceOnUse" color-interpolation-filters="sRGB">
<feFlood flood-opacity="0" result="BackgroundImageFix" id="feFlood5497"></feFlood>
<feColorMatrix in="SourceAlpha" type="matrix" values="0 0 0 0 0 0 0 0 0 0 0 0 0 0 0 0 0 0 127 0" id="feColorMatrix9356"></feColorMatrix>
<feOffset dy="2" id="feOffset1151"></feOffset>
<feGaussianBlur stdDeviation="2" id="feGaussianBlur9964"></feGaussianBlur>
<feColorMatrix type="matrix" values="0 0 0 0 0 0 0 0 0 0 0 0 0 0 0 0 0 0 0.5 0" id="feColorMatrix9741"></feColorMatrix>
<feBlend mode="normal" in2="BackgroundImageFix" result="effect1_dropShadow" id="feBlend8794"></feBlend>
<feBlend mode="normal" in="SourceGraphic" in2="effect1_dropShadow" result="shape" id="feBlend7286"></feBlend>
</filter>
<filter id="filter11_d" x="678.301" y="275.102" width="28.1486" height="28.1486" filterUnits="userSpaceOnUse" color-interpolation-filters="sRGB">
<feFlood flood-opacity="0" result="BackgroundImageFix" id="feFlood8276"></feFlood>
<feColorMatrix in="SourceAlpha" type="matrix" values="0 0 0 0 0 0 0 0 0 0 0 0 0 0 0 0 0 0 127 0" id="feColorMatrix7475"></feColorMatrix>
<feOffset dy="2" id="feOffset7280"></feOffset>
<feGaussianBlur stdDeviation="2" id="feGaussianBlur8860"></feGaussianBlur>
<feColorMatrix type="matrix" values="0 0 0 0 0 0 0 0 0 0 0 0 0 0 0 0 0 0 0.5 0" id="feColorMatrix2057"></feColorMatrix>
<feBlend mode="normal" in2="BackgroundImageFix" result="effect1_dropShadow" id="feBlend1267"></feBlend>
<feBlend mode="normal" in="SourceGraphic" in2="effect1_dropShadow" result="shape" id="feBlend6811"></feBlend>
</filter>
<filter id="filter12_d" x="788.321" y="383.945" width="28.1486" height="28.1486" filterUnits="userSpaceOnUse" color-interpolation-filters="sRGB">
<feFlood flood-opacity="0" result="BackgroundImageFix" id="feFlood5357"></feFlood>
<feColorMatrix in="SourceAlpha" type="matrix" values="0 0 0 0 0 0 0 0 0 0 0 0 0 0 0 0 0 0 127 0" id="feColorMatrix2187"></feColorMatrix>
<feOffset dy="2" id="feOffset9275"></feOffset>
<feGaussianBlur stdDeviation="2" id="feGaussianBlur4221"></feGaussianBlur>
<feColorMatrix type="matrix" values="0 0 0 0 0 0 0 0 0 0 0 0 0 0 0 0 0 0 0.5 0" id="feColorMatrix7495"></feColorMatrix>
<feBlend mode="normal" in2="BackgroundImageFix" result="effect1_dropShadow" id="feBlend6306"></feBlend>
<feBlend mode="normal" in="SourceGraphic" in2="effect1_dropShadow" result="shape" id="feBlend1507"></feBlend>
</filter>
<filter id="filter13_d" x="902.015" y="330.787" width="28.1486" height="28.1486" filterUnits="userSpaceOnUse" color-interpolation-filters="sRGB">
<feFlood flood-opacity="0" result="BackgroundImageFix" id="feFlood6356"></feFlood>
<feColorMatrix in="SourceAlpha" type="matrix" values="0 0 0 0 0 0 0 0 0 0 0 0 0 0 0 0 0 0 127 0" id="feColorMatrix4213"></feColorMatrix>
<feOffset dy="2" id="feOffset6994"></feOffset>
<feGaussianBlur stdDeviation="2" id="feGaussianBlur9212"></feGaussianBlur>
<feColorMatrix type="matrix" values="0 0 0 0 0 0 0 0 0 0 0 0 0 0 0 0 0 0 0.5 0" id="feColorMatrix6806"></feColorMatrix>
<feBlend mode="normal" in2="BackgroundImageFix" result="effect1_dropShadow" id="feBlend6140"></feBlend>
<feBlend mode="normal" in="SourceGraphic" in2="effect1_dropShadow" result="shape" id="feBlend266"></feBlend>
</filter>
<filter id="filter14_d" x="1003" y="192" width="28.1486" height="28.1486" filterUnits="userSpaceOnUse" color-interpolation-filters="sRGB">
<feFlood flood-opacity="0" result="BackgroundImageFix" id="feFlood8898"></feFlood>
<feColorMatrix in="SourceAlpha" type="matrix" values="0 0 0 0 0 0 0 0 0 0 0 0 0 0 0 0 0 0 127 0" id="feColorMatrix871"></feColorMatrix>
<feOffset dy="2" id="feOffset5057"></feOffset>
<feGaussianBlur stdDeviation="2" id="feGaussianBlur6684"></feGaussianBlur>
<feColorMatrix type="matrix" values="0 0 0 0 0 0 0 0 0 0 0 0 0 0 0 0 0 0 0.5 0" id="feColorMatrix4133"></feColorMatrix>
<feBlend mode="normal" in2="BackgroundImageFix" result="effect1_dropShadow" id="feBlend3816"></feBlend>
<feBlend mode="normal" in="SourceGraphic" in2="effect1_dropShadow" result="shape" id="feBlend5682"></feBlend>
</filter>
<linearGradient id="paint0_linear" x1="919" y1="342.947" x2="988.568" y2="433.631" gradientUnits="userSpaceOnUse">
<stop stop-color="#F0F0F0" id="stop6389"></stop>
<stop offset="1" stop-color="#E3D2CF" id="stop5331"></stop>
</linearGradient>
<linearGradient id="paint1_linear" x1="919" y1="349.075" x2="989.188" y2="258.227" gradientUnits="userSpaceOnUse">
<stop stop-color="#FFB320" id="stop6964"></stop>
<stop offset="1" stop-color="#FF5C5C" id="stop8429"></stop>
</linearGradient>
<linearGradient id="paint2_linear" x1="321.5" y1="301.907" x2="395.07" y2="335.935" gradientUnits="userSpaceOnUse">
<stop stop-color="#F0F0F0" id="stop522"></stop>
<stop offset="1" stop-color="#E3D2CF" id="stop6009"></stop>
</linearGradient>
<linearGradient id="paint3_linear" x1="577.5" y1="308.593" x2="609.298" y2="351.356" gradientUnits="userSpaceOnUse">
<stop stop-color="#F0F0F0" id="stop9628"></stop>
<stop offset="1" stop-color="#E3D2CF" id="stop4057"></stop>
</linearGradient>
<linearGradient id="paint4_linear" x1="802.5" y1="362.593" x2="834.298" y2="405.356" gradientUnits="userSpaceOnUse">
<stop stop-color="#F0F0F0" id="stop7583"></stop>
<stop offset="1" stop-color="#E3D2CF" id="stop6255"></stop>
</linearGradient>
<linearGradient id="paint5_linear" x1="692" y1="280.5" x2="815.245" y2="369.681" gradientUnits="userSpaceOnUse">
<stop stop-color="#F0F0F0" id="stop7562"></stop>
<stop offset="1" stop-color="#E3D2CF" id="stop2289"></stop>
</linearGradient>
<linearGradient id="paint6_linear" x1="692" y1="290.569" x2="798.766" y2="197.568" gradientUnits="userSpaceOnUse">
<stop stop-color="#FFB320" id="stop6049"></stop>
<stop offset="1" stop-color="#FF5C5C" id="stop5739"></stop>
</linearGradient>
<linearGradient id="paint7_linear" x1="448" y1="340.683" x2="495.531" y2="422.329" gradientUnits="userSpaceOnUse">
<stop stop-color="#F0F0F0" id="stop3395"></stop>
<stop offset="1" stop-color="#E3D2CF" id="stop2434"></stop>
</linearGradient>
<linearGradient id="paint8_linear" x1="448" y1="346.681" x2="534.577" y2="253.078" gradientUnits="userSpaceOnUse">
<stop stop-color="#FFB320" id="stop9513"></stop>
<stop offset="1" stop-color="#FF5C5C" id="stop6105"></stop>
</linearGradient>
<linearGradient id="paint9_linear" x1="743" y1="99" x2="832.236" y2="266.89" gradientUnits="userSpaceOnUse">
<stop stop-color="#FF5C5C" id="stop9336"></stop>
<stop offset="1" stop-color="#FFB320" id="stop8986"></stop>
</linearGradient>
<linearGradient id="paint10_linear" x1="524.528" y1="272" x2="561.794" y2="342.112" gradientUnits="userSpaceOnUse">
<stop stop-color="#FF5C5C" id="stop4483"></stop>
<stop offset="1" stop-color="#FFB320" id="stop3685"></stop>
</linearGradient>
</defs>
</svg>