<svg width="696" height="414" viewBox="0 0 696 414" fill="none" xmlns="http://www.w3.org/2000/svg">
<g clip-path="url(#clip0_125_23703)">
<rect width="34" height="31" fill="black"/>
<path d="M11.767 13.4545V14.3068H8.375V13.4545H11.767ZM9.36364 11.8864H10.3693V18.125C10.3693 18.4091 10.4105 18.6222 10.4929 18.7642C10.5781 18.9034 10.6861 18.9972 10.8168 19.0455C10.9503 19.0909 11.0909 19.1136 11.2386 19.1136C11.3494 19.1136 11.4403 19.108 11.5114 19.0966C11.5824 19.0824 11.6392 19.071 11.6818 19.0625L11.8864 19.9659C11.8182 19.9915 11.723 20.017 11.6009 20.0426C11.4787 20.071 11.3239 20.0852 11.1364 20.0852C10.8523 20.0852 10.5739 20.0241 10.3011 19.902C10.0313 19.7798 9.80682 19.5938 9.62784 19.3438C9.4517 19.0938 9.36364 18.7784 9.36364 18.3977V11.8864ZM15.9538 20.1364C15.3232 20.1364 14.7791 19.9972 14.3217 19.7188C13.8672 19.4375 13.5163 19.0455 13.2692 18.5426C13.0249 18.0369 12.9027 17.4489 12.9027 16.7784C12.9027 16.108 13.0249 15.517 13.2692 15.0057C13.5163 14.4915 13.8601 14.0909 14.3004 13.804C14.7436 13.5142 15.2607 13.3693 15.8516 13.3693C16.1925 13.3693 16.5291 13.4261 16.8615 13.5398C17.1939 13.6534 17.4964 13.8381 17.7692 14.0938C18.0419 14.3466 18.2592 14.6818 18.4212 15.0994C18.5831 15.517 18.6641 16.0312 18.6641 16.642V17.0682H13.6186V16.1989H17.6413C17.6413 15.8295 17.5675 15.5 17.4197 15.2102C17.2749 14.9205 17.0675 14.6918 16.7976 14.5241C16.5305 14.3565 16.2152 14.2727 15.8516 14.2727C15.451 14.2727 15.1044 14.3722 14.8118 14.571C14.522 14.767 14.299 15.0227 14.1428 15.3381C13.9865 15.6534 13.9084 15.9915 13.9084 16.3523V16.9318C13.9084 17.4261 13.9936 17.8452 14.1641 18.1889C14.3374 18.5298 14.5774 18.7898 14.8842 18.9688C15.1911 19.1449 15.5476 19.233 15.9538 19.233C16.218 19.233 16.4567 19.196 16.6697 19.1222C16.8857 19.0455 17.0717 18.9318 17.228 18.7812C17.3842 18.6278 17.505 18.4375 17.5902 18.2102L18.5618 18.483C18.4595 18.8125 18.2876 19.1023 18.0462 19.3523C17.8047 19.5994 17.5064 19.7926 17.1513 19.9318C16.7962 20.0682 16.397 20.1364 15.9538 20.1364ZM24.8303 14.9205L23.9268 15.1761C23.87 15.0256 23.7862 14.8793 23.6754 14.7372C23.5675 14.5923 23.4197 14.473 23.2322 14.3793C23.0447 14.2855 22.8047 14.2386 22.5121 14.2386C22.1115 14.2386 21.7777 14.331 21.5107 14.5156C21.2464 14.6974 21.1143 14.929 21.1143 15.2102C21.1143 15.4602 21.2053 15.6577 21.3871 15.8026C21.5689 15.9474 21.853 16.0682 22.2393 16.1648L23.2109 16.4034C23.7962 16.5455 24.2322 16.7628 24.5192 17.0554C24.8061 17.3452 24.9496 17.7187 24.9496 18.1761C24.9496 18.5511 24.8416 18.8864 24.6257 19.1818C24.4126 19.4773 24.1143 19.7102 23.7308 19.8807C23.3473 20.0511 22.9013 20.1364 22.3928 20.1364C21.7251 20.1364 21.1726 19.9915 20.7351 19.7017C20.2976 19.4119 20.0206 18.9886 19.9041 18.4318L20.8587 18.1932C20.9496 18.5455 21.1214 18.8097 21.3743 18.9858C21.63 19.1619 21.9638 19.25 22.3757 19.25C22.8445 19.25 23.2166 19.1506 23.4922 18.9517C23.7706 18.75 23.9098 18.5085 23.9098 18.2273C23.9098 18 23.8303 17.8097 23.6712 17.6562C23.5121 17.5 23.2678 17.3835 22.9382 17.3068L21.8473 17.0511C21.2479 16.9091 20.8075 16.6889 20.5263 16.3906C20.2479 16.0895 20.1087 15.7131 20.1087 15.2614C20.1087 14.892 20.2124 14.5653 20.4197 14.2812C20.63 13.9972 20.9155 13.7741 21.2763 13.6122C21.6399 13.4503 22.0518 13.3693 22.5121 13.3693C23.1598 13.3693 23.6683 13.5114 24.0376 13.7955C24.4098 14.0795 24.674 14.4545 24.8303 14.9205Z" fill="white"/>
<rect width="34" height="31" transform="translate(662)" fill="black"/>
<path d="M673.767 13.4545V14.3068H670.375V13.4545H673.767ZM671.364 11.8864H672.369V18.125C672.369 18.4091 672.411 18.6222 672.493 18.7642C672.578 18.9034 672.686 18.9972 672.817 19.0455C672.95 19.0909 673.091 19.1136 673.239 19.1136C673.349 19.1136 673.44 19.108 673.511 19.0966C673.582 19.0824 673.639 19.071 673.682 19.0625L673.886 19.9659C673.818 19.9915 673.723 20.017 673.601 20.0426C673.479 20.071 673.324 20.0852 673.136 20.0852C672.852 20.0852 672.574 20.0241 672.301 19.902C672.031 19.7798 671.807 19.5938 671.628 19.3438C671.452 19.0938 671.364 18.7784 671.364 18.3977V11.8864ZM677.954 20.1364C677.323 20.1364 676.779 19.9972 676.322 19.7188C675.867 19.4375 675.516 19.0455 675.269 18.5426C675.025 18.0369 674.903 17.4489 674.903 16.7784C674.903 16.108 675.025 15.517 675.269 15.0057C675.516 14.4915 675.86 14.0909 676.3 13.804C676.744 13.5142 677.261 13.3693 677.852 13.3693C678.192 13.3693 678.529 13.4261 678.862 13.5398C679.194 13.6534 679.496 13.8381 679.769 14.0938C680.042 14.3466 680.259 14.6818 680.421 15.0994C680.583 15.517 680.664 16.0312 680.664 16.642V17.0682H675.619V16.1989H679.641C679.641 15.8295 679.567 15.5 679.42 15.2102C679.275 14.9205 679.067 14.6918 678.798 14.5241C678.531 14.3565 678.215 14.2727 677.852 14.2727C677.451 14.2727 677.104 14.3722 676.812 14.571C676.522 14.767 676.299 15.0227 676.143 15.3381C675.987 15.6534 675.908 15.9915 675.908 16.3523V16.9318C675.908 17.4261 675.994 17.8452 676.164 18.1889C676.337 18.5298 676.577 18.7898 676.884 18.9688C677.191 19.1449 677.548 19.233 677.954 19.233C678.218 19.233 678.457 19.196 678.67 19.1222C678.886 19.0455 679.072 18.9318 679.228 18.7812C679.384 18.6278 679.505 18.4375 679.59 18.2102L680.562 18.483C680.46 18.8125 680.288 19.1023 680.046 19.3523C679.805 19.5994 679.506 19.7926 679.151 19.9318C678.796 20.0682 678.397 20.1364 677.954 20.1364ZM686.83 14.9205L685.927 15.1761C685.87 15.0256 685.786 14.8793 685.675 14.7372C685.567 14.5923 685.42 14.473 685.232 14.3793C685.045 14.2855 684.805 14.2386 684.512 14.2386C684.112 14.2386 683.778 14.331 683.511 14.5156C683.246 14.6974 683.114 14.929 683.114 15.2102C683.114 15.4602 683.205 15.6577 683.387 15.8026C683.569 15.9474 683.853 16.0682 684.239 16.1648L685.211 16.4034C685.796 16.5455 686.232 16.7628 686.519 17.0554C686.806 17.3452 686.95 17.7187 686.95 18.1761C686.95 18.5511 686.842 18.8864 686.626 19.1818C686.413 19.4773 686.114 19.7102 685.731 19.8807C685.347 20.0511 684.901 20.1364 684.393 20.1364C683.725 20.1364 683.173 19.9915 682.735 19.7017C682.298 19.4119 682.021 18.9886 681.904 18.4318L682.859 18.1932C682.95 18.5455 683.121 18.8097 683.374 18.9858C683.63 19.1619 683.964 19.25 684.376 19.25C684.844 19.25 685.217 19.1506 685.492 18.9517C685.771 18.75 685.91 18.5085 685.91 18.2273C685.91 18 685.83 17.8097 685.671 17.6562C685.512 17.5 685.268 17.3835 684.938 17.3068L683.847 17.0511C683.248 16.9091 682.808 16.6889 682.526 16.3906C682.248 16.0895 682.109 15.7131 682.109 15.2614C682.109 14.892 682.212 14.5653 682.42 14.2812C682.63 13.9972 682.915 13.7741 683.276 13.6122C683.64 13.4503 684.052 13.3693 684.512 13.3693C685.16 13.3693 685.668 13.5114 686.038 13.7955C686.41 14.0795 686.674 14.4545 686.83 14.9205Z" fill="white"/>
<rect width="34" height="31" transform="translate(662 383)" fill="black"/>
<path d="M673.767 396.455V397.307H670.375V396.455H673.767ZM671.364 394.886H672.369V401.125C672.369 401.409 672.411 401.622 672.493 401.764C672.578 401.903 672.686 401.997 672.817 402.045C672.95 402.091 673.091 402.114 673.239 402.114C673.349 402.114 673.44 402.108 673.511 402.097C673.582 402.082 673.639 402.071 673.682 402.062L673.886 402.966C673.818 402.991 673.723 403.017 673.601 403.043C673.479 403.071 673.324 403.085 673.136 403.085C672.852 403.085 672.574 403.024 672.301 402.902C672.031 402.78 671.807 402.594 671.628 402.344C671.452 402.094 671.364 401.778 671.364 401.398V394.886ZM677.954 403.136C677.323 403.136 676.779 402.997 676.322 402.719C675.867 402.438 675.516 402.045 675.269 401.543C675.025 401.037 674.903 400.449 674.903 399.778C674.903 399.108 675.025 398.517 675.269 398.006C675.516 397.491 675.86 397.091 676.3 396.804C676.744 396.514 677.261 396.369 677.852 396.369C678.192 396.369 678.529 396.426 678.862 396.54C679.194 396.653 679.496 396.838 679.769 397.094C680.042 397.347 680.259 397.682 680.421 398.099C680.583 398.517 680.664 399.031 680.664 399.642V400.068H675.619V399.199H679.641C679.641 398.83 679.567 398.5 679.42 398.21C679.275 397.92 679.067 397.692 678.798 397.524C678.531 397.357 678.215 397.273 677.852 397.273C677.451 397.273 677.104 397.372 676.812 397.571C676.522 397.767 676.299 398.023 676.143 398.338C675.987 398.653 675.908 398.991 675.908 399.352V399.932C675.908 400.426 675.994 400.845 676.164 401.189C676.337 401.53 676.577 401.79 676.884 401.969C677.191 402.145 677.548 402.233 677.954 402.233C678.218 402.233 678.457 402.196 678.67 402.122C678.886 402.045 679.072 401.932 679.228 401.781C679.384 401.628 679.505 401.437 679.59 401.21L680.562 401.483C680.46 401.812 680.288 402.102 680.046 402.352C679.805 402.599 679.506 402.793 679.151 402.932C678.796 403.068 678.397 403.136 677.954 403.136ZM686.83 397.92L685.927 398.176C685.87 398.026 685.786 397.879 685.675 397.737C685.567 397.592 685.42 397.473 685.232 397.379C685.045 397.286 684.805 397.239 684.512 397.239C684.112 397.239 683.778 397.331 683.511 397.516C683.246 397.697 683.114 397.929 683.114 398.21C683.114 398.46 683.205 398.658 683.387 398.803C683.569 398.947 683.853 399.068 684.239 399.165L685.211 399.403C685.796 399.545 686.232 399.763 686.519 400.055C686.806 400.345 686.95 400.719 686.95 401.176C686.95 401.551 686.842 401.886 686.626 402.182C686.413 402.477 686.114 402.71 685.731 402.881C685.347 403.051 684.901 403.136 684.393 403.136C683.725 403.136 683.173 402.991 682.735 402.702C682.298 402.412 682.021 401.989 681.904 401.432L682.859 401.193C682.95 401.545 683.121 401.81 683.374 401.986C683.63 402.162 683.964 402.25 684.376 402.25C684.844 402.25 685.217 402.151 685.492 401.952C685.771 401.75 685.91 401.509 685.91 401.227C685.91 401 685.83 400.81 685.671 400.656C685.512 400.5 685.268 400.384 684.938 400.307L683.847 400.051C683.248 399.909 682.808 399.689 682.526 399.391C682.248 399.089 682.109 398.713 682.109 398.261C682.109 397.892 682.212 397.565 682.42 397.281C682.63 396.997 682.915 396.774 683.276 396.612C683.64 396.45 684.052 396.369 684.512 396.369C685.16 396.369 685.668 396.511 686.038 396.795C686.41 397.08 686.674 397.455 686.83 397.92Z" fill="white"/>
<rect width="34" height="31" transform="translate(0 383)" fill="black"/>
<path d="M11.767 396.455V397.307H8.375V396.455H11.767ZM9.36364 394.886H10.3693V401.125C10.3693 401.409 10.4105 401.622 10.4929 401.764C10.5781 401.903 10.6861 401.997 10.8168 402.045C10.9503 402.091 11.0909 402.114 11.2386 402.114C11.3494 402.114 11.4403 402.108 11.5114 402.097C11.5824 402.082 11.6392 402.071 11.6818 402.062L11.8864 402.966C11.8182 402.991 11.723 403.017 11.6009 403.043C11.4787 403.071 11.3239 403.085 11.1364 403.085C10.8523 403.085 10.5739 403.024 10.3011 402.902C10.0313 402.78 9.80682 402.594 9.62784 402.344C9.4517 402.094 9.36364 401.778 9.36364 401.398V394.886ZM15.9538 403.136C15.3232 403.136 14.7791 402.997 14.3217 402.719C13.8672 402.438 13.5163 402.045 13.2692 401.543C13.0249 401.037 12.9027 400.449 12.9027 399.778C12.9027 399.108 13.0249 398.517 13.2692 398.006C13.5163 397.491 13.8601 397.091 14.3004 396.804C14.7436 396.514 15.2607 396.369 15.8516 396.369C16.1925 396.369 16.5291 396.426 16.8615 396.54C17.1939 396.653 17.4964 396.838 17.7692 397.094C18.0419 397.347 18.2592 397.682 18.4212 398.099C18.5831 398.517 18.6641 399.031 18.6641 399.642V400.068H13.6186V399.199H17.6413C17.6413 398.83 17.5675 398.5 17.4197 398.21C17.2749 397.92 17.0675 397.692 16.7976 397.524C16.5305 397.357 16.2152 397.273 15.8516 397.273C15.451 397.273 15.1044 397.372 14.8118 397.571C14.522 397.767 14.299 398.023 14.1428 398.338C13.9865 398.653 13.9084 398.991 13.9084 399.352V399.932C13.9084 400.426 13.9936 400.845 14.1641 401.189C14.3374 401.53 14.5774 401.79 14.8842 401.969C15.1911 402.145 15.5476 402.233 15.9538 402.233C16.218 402.233 16.4567 402.196 16.6697 402.122C16.8857 402.045 17.0717 401.932 17.228 401.781C17.3842 401.628 17.505 401.437 17.5902 401.21L18.5618 401.483C18.4595 401.812 18.2876 402.102 18.0462 402.352C17.8047 402.599 17.5064 402.793 17.1513 402.932C16.7962 403.068 16.397 403.136 15.9538 403.136ZM24.8303 397.92L23.9268 398.176C23.87 398.026 23.7862 397.879 23.6754 397.737C23.5675 397.592 23.4197 397.473 23.2322 397.379C23.0447 397.286 22.8047 397.239 22.5121 397.239C22.1115 397.239 21.7777 397.331 21.5107 397.516C21.2464 397.697 21.1143 397.929 21.1143 398.21C21.1143 398.46 21.2053 398.658 21.3871 398.803C21.5689 398.947 21.853 399.068 22.2393 399.165L23.2109 399.403C23.7962 399.545 24.2322 399.763 24.5192 400.055C24.8061 400.345 24.9496 400.719 24.9496 401.176C24.9496 401.551 24.8416 401.886 24.6257 402.182C24.4126 402.477 24.1143 402.71 23.7308 402.881C23.3473 403.051 22.9013 403.136 22.3928 403.136C21.7251 403.136 21.1726 402.991 20.7351 402.702C20.2976 402.412 20.0206 401.989 19.9041 401.432L20.8587 401.193C20.9496 401.545 21.1214 401.81 21.3743 401.986C21.63 402.162 21.9638 402.25 22.3757 402.25C22.8445 402.25 23.2166 402.151 23.4922 401.952C23.7706 401.75 23.9098 401.509 23.9098 401.227C23.9098 401 23.8303 400.81 23.6712 400.656C23.5121 400.5 23.2678 400.384 22.9382 400.307L21.8473 400.051C21.2479 399.909 20.8075 399.689 20.5263 399.391C20.2479 399.089 20.1087 398.713 20.1087 398.261C20.1087 397.892 20.2124 397.565 20.4197 397.281C20.63 396.997 20.9155 396.774 21.2763 396.612C21.6399 396.45 22.0518 396.369 22.5121 396.369C23.1598 396.369 23.6683 396.511 24.0376 396.795C24.4098 397.08 24.674 397.455 24.8303 397.92Z" fill="white"/>
</g>
<defs>
<clipPath id="clip0_125_23703">
<rect width="696" height="414" fill="white"/>
</clipPath>
</defs>
</svg>
