<svg width="44" height="44" viewBox="0 0 44 44" fill="none" xmlns="http://www.w3.org/2000/svg">
<path d="M27.75 13C28.612 13 29.4386 13.3424 30.0481 13.9519C30.6576 14.5614 31 15.388 31 16.25V22.999L26.251 23L26.038 23.007C25.464 23.0448 24.9102 23.2344 24.4334 23.5562C23.9566 23.8781 23.5738 24.3208 23.324 24.839C22.904 24.953 22.464 25.009 22.001 25.009C20.9917 25.0196 20.0043 24.7144 19.177 24.136C19.0961 24.0784 19.0046 24.0374 18.9077 24.0154C18.8108 23.9934 18.7106 23.9909 18.6127 24.008C18.5149 24.0251 18.4214 24.0615 18.3377 24.115C18.254 24.1685 18.1818 24.2381 18.1253 24.3198C18.0687 24.4015 18.0289 24.4935 18.0083 24.5907C17.9876 24.6878 17.9864 24.7881 18.0048 24.8857C18.0232 24.9833 18.0608 25.0763 18.1154 25.1593C18.17 25.2422 18.2406 25.3135 18.323 25.369C19.401 26.1214 20.6864 26.5198 22.001 26.509C22.228 26.509 22.451 26.499 22.672 26.477L23.001 26.437L23 31H16.25C15.388 31 14.5614 30.6576 13.9519 30.0481C13.3424 29.4386 13 28.612 13 27.75V16.25C13 15.388 13.3424 14.5614 13.9519 13.9519C14.5614 13.3424 15.388 13 16.25 13H27.75ZM30.341 24.72L24.72 30.34C24.6515 30.4083 24.5787 30.4721 24.502 30.531L24.5 26.25L24.506 26.107C24.5399 25.6952 24.7184 25.3086 25.01 25.0157C25.3015 24.7229 25.6873 24.5427 26.099 24.507L26.25 24.5H30.532C30.473 24.577 30.41 24.65 30.341 24.72ZM19.001 17.75C18.8339 17.7453 18.6676 17.7741 18.5119 17.8348C18.3562 17.8954 18.2142 17.9867 18.0944 18.1032C17.9745 18.2197 17.8793 18.359 17.8142 18.513C17.7492 18.6669 17.7156 18.8324 17.7156 18.9995C17.7156 19.1666 17.7492 19.3321 17.8142 19.486C17.8793 19.64 17.9745 19.7793 18.0944 19.8958C18.2142 20.0123 18.3562 20.1036 18.5119 20.1642C18.6676 20.2249 18.8339 20.2537 19.001 20.249C19.3263 20.2397 19.6351 20.1039 19.8618 19.8705C20.0885 19.637 20.2153 19.3244 20.2152 18.999C20.215 18.6736 20.088 18.3611 19.8611 18.1279C19.6342 17.8946 19.3253 17.7591 19 17.75H19.001ZM25.001 17.75C24.8339 17.7453 24.6676 17.7741 24.5119 17.8348C24.3562 17.8954 24.2142 17.9867 24.0944 18.1032C23.9745 18.2197 23.8793 18.359 23.8142 18.513C23.7492 18.6669 23.7156 18.8324 23.7156 18.9995C23.7156 19.1666 23.7492 19.3321 23.8142 19.486C23.8793 19.64 23.9745 19.7793 24.0944 19.8958C24.2142 20.0123 24.3562 20.1036 24.5119 20.1642C24.6676 20.2249 24.8339 20.2537 25.001 20.249C25.3263 20.2398 25.6351 20.1041 25.8619 19.8708C26.0888 19.6375 26.2156 19.3249 26.2156 18.9995C26.2156 18.6741 26.0888 18.3615 25.8619 18.1282C25.6351 17.8949 25.3263 17.7592 25.001 17.75Z" fill="black"/>
</svg>
