<svg width="44" height="44" viewBox="0 0 44 44" fill="none" xmlns="http://www.w3.org/2000/svg">
<path fill-rule="evenodd" clip-rule="evenodd" d="M23.9998 30H20.0002C17.1913 30 15.7864 30 14.7775 29.3467C14.3401 29.0631 13.9657 28.6996 13.6741 28.2764C13 27.2978 13 25.936 13 23.2125C13 20.488 13 19.1263 13.675 18.1485C13.9678 17.7237 14.3425 17.3601 14.7775 17.0783C15.4264 16.6587 16.2382 16.5076 17.4802 16.4543C18.0733 16.4543 18.5836 16.0187 18.6997 15.4543C18.8743 14.6089 19.6402 14 20.5294 14H23.4706C23.8985 13.9972 24.3143 14.1404 24.6477 14.4053C24.981 14.6703 25.2116 15.0408 25.3003 15.4543C25.4164 16.0187 25.9267 16.4543 26.5198 16.4543C27.7627 16.5076 28.5745 16.6578 29.2225 17.0783C29.6578 17.36 30.0328 17.7237 30.3259 18.1485C31 19.1263 31 20.488 31 23.2125C31 25.936 31 27.2987 30.3259 28.2764C30.0327 28.7012 29.6578 29.0649 29.2225 29.3467C28.2136 30 26.8087 30 23.9998 30ZM21.7878 26.4223C21.7878 26.3811 21.7844 26.3398 21.7775 26.2985C21.7637 26.2366 21.7465 26.1747 21.7259 26.1128L21.6949 26.02L19.5493 20.7383L19.4874 20.5733C19.4736 20.532 19.4564 20.4942 19.4358 20.4598C19.4152 20.4254 19.398 20.3841 19.3842 20.336C19.3498 20.2466 19.312 20.1675 19.2707 20.0987C19.2157 20.0162 19.1641 19.944 19.116 19.8821C19.0747 19.8271 19.0163 19.7824 18.9406 19.748C18.8444 19.7136 18.7309 19.6964 18.6002 19.6964C18.4764 19.6964 18.3664 19.7136 18.2701 19.748C18.1945 19.7824 18.136 19.8271 18.0947 19.8821L18.0122 19.9853C17.9847 20.0196 17.9606 20.0575 17.94 20.0987C17.8987 20.1675 17.8609 20.2466 17.8265 20.336C17.8128 20.3841 17.7956 20.4254 17.7749 20.4598C17.7543 20.4942 17.7371 20.532 17.7234 20.5733L17.6615 20.7383L15.5158 26.02L15.4848 26.1128C15.4642 26.1747 15.447 26.2366 15.4333 26.2985L15.4126 26.4223V26.5461C15.4126 26.6286 15.4367 26.7043 15.4848 26.7731C15.5055 26.8074 15.533 26.8418 15.5674 26.8762C15.6018 26.9037 15.643 26.9278 15.6912 26.9484C15.8631 27.0447 16.0453 27.0791 16.2379 27.0516C16.3342 27.0241 16.4201 26.9794 16.4958 26.9175C16.5095 26.9037 16.5199 26.8968 16.5267 26.8968C16.5336 26.89 16.5405 26.8796 16.5474 26.8659L16.568 26.8453C16.5749 26.8315 16.5852 26.8212 16.5989 26.8143C16.6333 26.7799 16.6608 26.749 16.6815 26.7215C16.7021 26.6871 16.7193 26.6527 16.7331 26.6183C16.7537 26.5839 16.7709 26.553 16.7846 26.5255L16.8465 26.4223C16.8603 26.3948 16.8706 26.3707 16.8775 26.3501L16.9187 26.2676C16.9325 26.2401 16.9394 26.2126 16.9394 26.1851C16.9462 26.1575 16.9566 26.13 16.9703 26.1025L17.1869 25.5971C17.6615 25.6039 18.1326 25.6074 18.6002 25.6074C19.0747 25.6005 19.5493 25.5971 20.0238 25.5971L20.2404 26.1025C20.2473 26.1507 20.2645 26.2057 20.292 26.2676C20.2989 26.2951 20.3092 26.3226 20.3229 26.3501C20.3367 26.3707 20.3505 26.3948 20.3642 26.4223C20.3848 26.4567 20.402 26.4911 20.4158 26.5255C20.4364 26.553 20.4536 26.5839 20.4674 26.6183L20.5293 26.7215C20.5499 26.749 20.5774 26.7799 20.6118 26.8143C20.6255 26.8212 20.6359 26.8315 20.6427 26.8453L20.6634 26.8659C20.6702 26.8796 20.6771 26.89 20.684 26.8968C20.6909 26.8968 20.7012 26.9037 20.7149 26.9175C20.7906 26.9794 20.8766 27.0241 20.9728 27.0516C21.1654 27.0791 21.3476 27.0447 21.5196 26.9484C21.5677 26.9278 21.609 26.9037 21.6434 26.8762C21.6778 26.8418 21.7053 26.8074 21.7259 26.7731C21.774 26.7043 21.7981 26.6286 21.7981 26.5461C21.7981 26.498 21.7947 26.4567 21.7878 26.4223ZM19.0541 23.1522C19.1504 23.3654 19.2432 23.5717 19.3326 23.7712L19.5183 24.2251H17.6924L17.8781 23.7712C17.9675 23.5717 18.0569 23.3654 18.1463 23.1522C18.2426 22.939 18.3423 22.7224 18.4455 22.5023L18.528 22.3166C18.5555 22.2479 18.5796 22.1825 18.6002 22.1206C18.6277 22.1825 18.6552 22.2479 18.6827 22.3166L18.7653 22.5023C18.8684 22.7224 18.9647 22.939 19.0541 23.1522ZM27.9279 26.7421C27.9486 26.6802 27.9555 26.6149 27.9486 26.5461C27.9348 26.4842 27.9176 26.4051 27.897 26.3088C27.8764 26.2745 27.8557 26.2366 27.8351 26.1954C27.8213 26.1541 27.8042 26.1163 27.7835 26.0819C27.7698 26.0475 27.7526 26.0131 27.7319 25.9787C27.7113 25.9444 27.6941 25.9134 27.6804 25.8859L27.5875 25.7208L26.6385 23.8124C26.6522 23.8055 26.6694 23.8021 26.69 23.8021C26.7176 23.7952 26.7382 23.7849 26.7519 23.7712C27.1371 23.6199 27.4156 23.3895 27.5875 23.08C27.7663 22.7705 27.8557 22.4301 27.8557 22.0587C27.8557 21.7424 27.7938 21.4295 27.67 21.12C27.5463 20.8105 27.364 20.5458 27.1233 20.3257C27.0477 20.2569 26.9445 20.1847 26.8138 20.1091C26.7107 20.0609 26.5972 20.0128 26.4734 19.9646C26.2809 19.889 26.0711 19.8374 25.8442 19.8099C25.6241 19.7755 25.4143 19.7514 25.2149 19.7377C24.9123 19.7239 24.6097 19.7171 24.3071 19.7171C24.0045 19.7171 23.6985 19.7136 23.389 19.7067C23.2239 19.6999 23.0967 19.7136 23.0073 19.748C22.9248 19.7755 22.8629 19.8099 22.8216 19.8512C22.7735 19.8855 22.7391 19.944 22.7185 20.0265C22.6772 20.1022 22.6531 20.1778 22.6463 20.2535C22.6394 20.2879 22.6325 20.3291 22.6256 20.3773V20.5011V26.3604C22.6256 26.4223 22.6359 26.4876 22.6566 26.5564C22.6703 26.5908 22.6806 26.6286 22.6875 26.6699L22.7288 26.7731C22.7425 26.8074 22.7597 26.8418 22.7804 26.8762C22.801 26.9037 22.8251 26.9278 22.8526 26.9484C22.9351 26.9966 23.0211 27.0309 23.1105 27.0516C23.3168 27.0928 23.4922 27.0688 23.6366 26.9794C23.7191 26.9244 23.7844 26.859 23.8326 26.7834C23.8807 26.7008 23.9117 26.6218 23.9254 26.5461C23.9323 26.498 23.9357 26.4464 23.9357 26.3914C23.9426 26.3364 23.946 26.2916 23.946 26.2573V26.1025C23.9529 26.0544 23.9564 26.0028 23.9564 25.9478V24.0806H24.1524C24.2899 24.0738 24.4206 24.0738 24.5444 24.0806C24.675 24.0875 24.8126 24.0841 24.957 24.0703C25.012 24.0634 25.067 24.06 25.122 24.06C25.1771 24.0531 25.2321 24.0497 25.2871 24.0497L26.4322 26.2263C26.4665 26.302 26.5044 26.3742 26.5456 26.4429C26.5869 26.5117 26.6247 26.5736 26.6591 26.6286C26.7347 26.7455 26.831 26.8521 26.9479 26.9484C27.0305 27.0241 27.1267 27.0653 27.2368 27.0722C27.2918 27.086 27.3434 27.086 27.3915 27.0722C27.4465 27.0653 27.5016 27.055 27.5566 27.0413C27.646 27.0069 27.7216 26.9691 27.7835 26.9278C27.8179 26.9003 27.8454 26.8728 27.866 26.8453C27.8936 26.8178 27.9142 26.7834 27.9279 26.7421ZM25.7204 22.8118C25.6103 22.8531 25.4934 22.8737 25.3696 22.8737H23.9564V21.8421C23.9632 21.5464 23.9632 21.2575 23.9564 20.9756H24.6269C24.8676 20.9756 25.0877 20.9825 25.2871 20.9962C25.6241 21.01 25.8957 21.1028 26.102 21.2747C26.3084 21.4398 26.3978 21.6942 26.3703 22.0381C26.3634 22.155 26.329 22.2651 26.2671 22.3682C26.2052 22.4645 26.1261 22.5505 26.0298 22.6261C25.9404 22.7018 25.8373 22.7636 25.7204 22.8118Z" fill="black"/>
</svg>
