<svg width="44" height="44" viewBox="0 0 44 44" fill="none" xmlns="http://www.w3.org/2000/svg">
<g clip-path="url(#clip0_416_752)">
<path d="M13 13H18.4V18.4H13V13ZM14.8 14.8V16.6H16.6V14.8H14.8ZM25.6 13H31V18.4H25.6V13ZM27.4 14.8V16.6H29.2V14.8H27.4ZM25.6 25.6H31V31H25.6V25.6ZM27.4 27.4V29.2H29.2V27.4H27.4ZM13 25.6H18.4V31H13V25.6ZM14.8 27.4V29.2H16.6V27.4H14.8ZM18.4 14.8H25.6V16.6H18.4V14.8ZM18.4 27.4H25.6V29.2H18.4V27.4ZM27.4 18.4H29.2V25.6H27.4V18.4ZM14.8 18.4H16.6V25.6H14.8V18.4ZM19.3 19.3H24.7V21.1H19.3V19.3ZM21.1 21.1H22.9V24.7H21.1V21.1Z" fill="black"/>
</g>
<defs>
<clipPath id="clip0_416_752">
<rect width="18" height="18" fill="white" transform="translate(13 13)"/>
</clipPath>
</defs>
</svg>
