<svg width="813" height="127" viewBox="0 0 813 127" fill="none" xmlns="http://www.w3.org/2000/svg">
<path d="M682.062 1C683.061 35.829 683.394 70.829 683.062 106C686.275 105.69 689.276 106.023 692.062 107V126C677.988 128.055 668.821 122.388 664.562 109C664.063 73.002 663.896 37.002 664.062 1H682.062ZM146.062 1C145.896 29.669 146.063 58.335 146.562 87C150.423 97.5219 157.924 103.689 169.062 105.5C178.395 106.167 187.73 106.167 197.062 105.5C207.139 103.72 214.305 98.2199 218.562 89C220.021 59.709 220.521 30.375 220.062 1H239.062C239.229 29.335 239.062 57.669 238.562 86C234.29 107.938 221.124 120.771 199.062 124.5C180.875 128.192 163.541 125.859 147.062 117.5C136.101 110.201 129.6 100.035 127.562 87C127.063 58.335 126.896 29.669 127.062 1H146.062ZM0.0625 1C26.7314 0.833001 53.3976 1 80.0625 1.5C100.711 6.632 110.211 19.799 108.562 41C106.827 47.639 103.66 53.472 99.0625 58.5C113.818 73.577 115.984 90.41 105.562 109C99.0465 118.177 90.2135 123.677 79.0625 125.5C52.7316 126 26.3974 126.167 0.0625 126C-0.1045 105.997 0.0625001 85.997 0.5625 66C2.52848 58.0311 7.36164 52.531 15.0625 49.5C28.7254 49 42.3916 48.833 56.0625 49V68C43.9075 68.995 31.5735 69.329 19.0625 69V106H78.0625C90.7295 101.668 95.2295 93.001 91.5625 80C88.8035 73.5431 83.9705 69.877 77.0625 69H74.0625C73.7385 62.146 74.0715 55.479 75.0625 49C88.3165 46.824 92.4835 39.491 87.5625 27C85.6895 24.7911 83.5224 22.958 81.0625 21.5C54.1266 20.026 27.1264 19.526 0.0625 20V1ZM259.062 1C286.064 0.833001 313.065 1 340.062 1.5C363.09 8.533 373.257 24.033 370.562 48C367.152 61.691 358.985 71.191 346.062 76.5C354.395 92.833 362.73 109.167 371.062 125.5C363.816 126.312 356.648 126.146 349.562 125C341.857 109.422 334.023 93.922 326.062 78.5C310.066 78 294.065 77.833 278.062 78V126H259.062C258.896 108.997 259.063 91.997 259.562 75C261.913 67.9811 266.414 62.814 273.062 59.5C294.062 59.167 315.063 58.833 336.062 58.5C351.257 53.609 355.756 43.776 349.562 29C346.25 24.2611 341.749 21.428 336.062 20.5C310.398 20 284.731 19.833 259.062 20V1ZM502.062 0C501.462 39.997 500.961 79.997 500.562 120C496.437 126.612 491.27 127.612 485.062 123C460.281 94.407 435.28 66.073 410.062 38C409.396 67.333 408.729 96.667 408.062 126H390.062C389.896 85.999 390.063 45.999 390.562 6C393.985 0.843072 398.486 -0.322849 404.062 2.5C430.229 32 456.396 61.5 482.562 91C483.062 60.668 483.229 30.335 483.062 0H502.062ZM568.062 49.5C594.06 49 620.061 48.833 646.062 49V68C621.569 68.998 596.901 69.331 572.062 69C572.393 88.174 572.059 107.174 571.062 126H553.062C552.896 104.997 553.063 83.997 553.562 63C556.185 56.1091 561.019 51.609 568.062 49.5ZM701.062 1C717.399 0.833 733.733 1 750.062 1.5C757.16 3.59899 761.994 8.09903 764.562 15C765.062 51.998 765.229 88.998 765.062 126H747.062V21H700.062C699.739 14.146 700.072 7.47898 701.062 1ZM40.6846 107.092C38.1795 107.113 35.6717 107.123 33.1611 107.123C35.6717 107.123 38.1795 107.113 40.6846 107.092ZM63.1602 106.623C60.671 106.706 58.1792 106.779 55.6846 106.842C58.1792 106.779 60.671 106.706 63.1602 106.623ZM646.062 20C614.901 20.998 583.566 21.332 552.062 21C551.739 14.146 552.072 7.47898 553.062 1H646.062V20ZM812.062 20H778.062V1H812.062V20Z" fill="white"/>
</svg>
