<svg width="44" height="44" viewBox="0 0 44 44" fill="none" xmlns="http://www.w3.org/2000/svg">
<path fill-rule="evenodd" clip-rule="evenodd" d="M16 13C14.3431 13 13 14.3431 13 16V28C13 29.6569 14.3431 31 16 31H28C29.6569 31 31 29.6569 31 28V16C31 14.3431 29.6569 13 28 13H16ZM22.779 20.139C22.5312 20.0412 22.2663 19.994 22 20C21.4774 20.0118 20.9803 20.2277 20.6149 20.6015C20.2496 20.9753 20.0451 21.4773 20.0452 22C20.0453 22.5227 20.2501 23.0245 20.6156 23.3982C20.9812 23.7718 21.4784 23.9874 22.001 23.999C22.2673 24.0049 22.5322 23.9575 22.78 23.8596C23.0277 23.7618 23.2535 23.6154 23.4439 23.4291C23.6343 23.2428 23.7856 23.0203 23.8889 22.7747C23.9921 22.5291 24.0453 22.2654 24.0452 21.999C24.0451 21.7326 23.9919 21.4689 23.8885 21.2233C23.7851 20.9778 23.6337 20.7554 23.4432 20.5692C23.2527 20.383 23.0269 20.2367 22.779 20.139ZM21.2929 22.7071C21.4804 22.8946 21.7348 23 22 23C22.2652 23 22.5196 22.8946 22.7071 22.7071C22.8946 22.5196 23 22.2652 23 22C23 21.7348 22.8946 21.4804 22.7071 21.2929C22.5196 21.1054 22.2652 21 22 21C21.7348 21 21.4804 21.1054 21.2929 21.2929C21.1054 21.4804 21 21.7348 21 22C21 22.2652 21.1054 22.5196 21.2929 22.7071ZM19.7039 16.4567C20.4319 16.1552 21.2121 16 22 16C23.5913 16 25.1174 16.6321 26.2426 17.7574C27.3679 18.8826 28 20.4087 28 22C28 23.5913 27.3679 25.1174 26.2426 26.2426C25.1174 27.3679 23.5913 28 22 28C21.2121 28 20.4319 27.8448 19.7039 27.5433C18.9759 27.2417 18.3145 26.7998 17.7574 26.2426C17.2002 25.6855 16.7583 25.0241 16.4567 24.2961C16.1552 23.5681 16 22.7879 16 22C16 21.2121 16.1552 20.4319 16.4567 19.7039C16.7583 18.9759 17.2002 18.3145 17.7574 17.7574C18.3145 17.2002 18.9759 16.7583 19.7039 16.4567Z" fill="black"/>
</svg>
