<svg width="44" height="44" viewBox="0 0 44 44" fill="none" xmlns="http://www.w3.org/2000/svg">
<path d="M24 31C23.7167 31 23.479 30.904 23.287 30.712C23.095 30.52 22.9993 30.2827 23 30C23 29.7167 23.096 29.479 23.288 29.287C23.48 29.095 23.7173 28.9993 24 29C24.7833 29 25.479 28.8457 26.087 28.537C26.695 28.2283 26.9993 27.8827 27 27.5C27 27.2667 26.8917 27.05 26.675 26.85C26.4583 26.65 26.1583 26.4667 25.775 26.3L27.25 24.825C27.7833 25.1417 28.2083 25.5167 28.525 25.95C28.8417 26.3833 29 26.9 29 27.5C29 28.6 28.475 29.4583 27.425 30.075C26.375 30.6917 25.2333 31 24 31ZM14.575 23.35C14.0917 23.0667 13.7083 22.7377 13.425 22.363C13.1417 21.9883 13 21.534 13 21C13 20.3 13.2583 19.7123 13.775 19.237C14.2917 18.7617 15.2167 18.2327 16.55 17.65C17.6 17.1667 18.271 16.8293 18.563 16.638C18.855 16.4467 19.0007 16.234 19 16C19 15.7333 18.8373 15.5 18.512 15.3C18.1867 15.1 17.6827 15 17 15C16.5833 15 16.2333 15.05 15.95 15.15C15.6667 15.25 15.4083 15.4167 15.175 15.65C14.9917 15.8333 14.7667 15.9417 14.5 15.975C14.2333 16.0083 13.9917 15.9333 13.775 15.75C13.5583 15.5833 13.4333 15.3667 13.4 15.1C13.3667 14.8333 13.4417 14.5917 13.625 14.375C13.9417 13.9917 14.396 13.6667 14.988 13.4C15.58 13.1333 16.2507 13 17 13C18.2 13 19.1667 13.271 19.9 13.813C20.6333 14.355 21 15.084 21 16C21 16.65 20.7583 17.2333 20.275 17.75C19.7917 18.2667 18.8167 18.8417 17.35 19.475C16.3833 19.8917 15.75 20.2 15.45 20.4C15.15 20.6 15 20.8 15 21C15 21.15 15.0957 21.296 15.287 21.438C15.4783 21.58 15.741 21.7173 16.075 21.85L14.575 23.35ZM28.85 20.4L24.6 16.15L25.65 15.1C26.05 14.7 26.5293 14.5 27.088 14.5C27.6467 14.5 28.1173 14.7 28.5 15.1L29.9 16.5C30.3 16.8833 30.5 17.3543 30.5 17.913C30.5 18.4717 30.3 18.9507 29.9 19.35L28.85 20.4ZM14 31V26.75L23.2 17.55L27.45 21.8L18.25 31H14Z" fill="black"/>
</svg>
